<svg width="61" height="60" viewBox="0 0 61 60" fill="none" xmlns="http://www.w3.org/2000/svg">
<circle cx="30" cy="30" r="29.5" fill="white" stroke="#BFBFBF"/>
<path d="M24.6657 34.3948H24.6671C24.6682 34.3948 24.6693 34.3945 24.6705 34.3945H40.6055C40.9978 34.3945 41.3427 34.1343 41.4505 33.7571L44.9661 21.4524C45.0419 21.1871 44.9888 20.902 44.8228 20.6818C44.6567 20.4616 44.3969 20.332 44.1211 20.332H22.6387L22.0104 17.5047C21.9209 17.1025 21.5643 16.8164 21.1523 16.8164H15.8789C15.3934 16.8164 15 17.2099 15 17.6953C15 18.1808 15.3934 18.5742 15.8789 18.5742H20.4474C20.5586 19.0752 23.454 32.1046 23.6206 32.8542C22.6865 33.2602 22.0312 34.1915 22.0312 35.2734C22.0312 36.7273 23.2141 37.9102 24.668 37.9102H40.6055C41.0909 37.9102 41.4844 37.5167 41.4844 37.0313C41.4844 36.5458 41.0909 36.1524 40.6055 36.1524H24.668C24.1834 36.1524 23.7891 35.758 23.7891 35.2734C23.7891 34.7896 24.1821 34.3959 24.6657 34.3948ZM42.9559 22.0899L39.9424 32.6367H25.3729L23.0292 22.0899H42.9559Z" fill="#1F1F1F"/>
<path d="M23.7891 40.5469C23.7891 42.0007 24.9719 43.1836 26.4258 43.1836C27.8796 43.1836 29.0625 42.0007 29.0625 40.5469C29.0625 39.093 27.8796 37.9101 26.4258 37.9101C24.9719 37.9101 23.7891 39.093 23.7891 40.5469ZM26.4258 39.668C26.9103 39.668 27.3047 40.0623 27.3047 40.5469C27.3047 41.0314 26.9103 41.4258 26.4258 41.4258C25.9412 41.4258 25.5469 41.0314 25.5469 40.5469C25.5469 40.0623 25.9412 39.668 26.4258 39.668Z" fill="#1F1F1F"/>
<path d="M36.2109 40.5469C36.2109 42.0007 37.3938 43.1836 38.8477 43.1836C40.3015 43.1836 41.4844 42.0007 41.4844 40.5469C41.4844 39.093 40.3015 37.9101 38.8477 37.9101C37.3938 37.9101 36.2109 39.093 36.2109 40.5469ZM38.8477 39.668C39.3322 39.668 39.7266 40.0623 39.7266 40.5469C39.7266 41.0314 39.3322 41.4258 38.8477 41.4258C38.3631 41.4258 37.9688 41.0314 37.9688 40.5469C37.9688 40.0623 38.3631 39.668 38.8477 39.668Z" fill="#1F1F1F"/>
<circle cx="53" cy="13" r="8" fill="#FF8126"/>
<path d="M48.36 15.199C49.332 14.533 50.109 13.882 50.691 13.246C51.279 12.604 51.573 12.01 51.573 11.464C51.573 11.14 51.492 10.882 51.33 10.69C51.174 10.498 50.919 10.402 50.565 10.402C50.199 10.402 49.923 10.522 49.737 10.762C49.551 10.996 49.446 11.332 49.422 11.77H48.423C48.465 11.044 48.687 10.489 49.089 10.105C49.497 9.721 50.016 9.529 50.646 9.529C51.264 9.529 51.747 9.694 52.095 10.024C52.449 10.348 52.626 10.798 52.626 11.374C52.626 11.836 52.482 12.304 52.194 12.778C51.912 13.252 51.552 13.69 51.114 14.092C50.676 14.488 50.223 14.83 49.755 15.118H52.77V15.955H48.36V15.199ZM55.8064 9.448C56.2264 9.448 56.5864 9.523 56.8864 9.673C57.1864 9.817 57.4114 10.018 57.5614 10.276C57.7174 10.534 57.7954 10.822 57.7954 11.14C57.7954 11.542 57.6814 11.878 57.4534 12.148C57.2314 12.412 56.9164 12.571 56.5084 12.625V12.67C56.9464 12.796 57.2884 12.985 57.5344 13.237C57.7864 13.483 57.9124 13.825 57.9124 14.263C57.9124 14.797 57.7354 15.232 57.3814 15.568C57.0274 15.898 56.5204 16.063 55.8604 16.063C55.1824 16.063 54.6364 15.892 54.2224 15.55C53.8084 15.202 53.5714 14.689 53.5114 14.011H54.5284C54.5644 14.371 54.6934 14.659 54.9154 14.875C55.1374 15.085 55.4374 15.19 55.8154 15.19C56.1694 15.19 56.4394 15.097 56.6254 14.911C56.8174 14.725 56.9134 14.485 56.9134 14.191C56.9134 13.837 56.7754 13.567 56.4994 13.381C56.2294 13.195 55.8364 13.102 55.3204 13.102H55.0774V12.256H55.3204C56.2984 12.268 56.7874 11.935 56.7874 11.257C56.7874 10.963 56.6974 10.732 56.5174 10.564C56.3374 10.396 56.0914 10.312 55.7794 10.312C55.4674 10.312 55.2064 10.408 54.9964 10.6C54.7864 10.786 54.6604 11.059 54.6184 11.419H53.6104C53.6524 10.795 53.8624 10.312 54.2404 9.97C54.6184 9.622 55.1404 9.448 55.8064 9.448Z" fill="white"/>
</svg>
