<svg width="60" height="60" viewBox="0 0 60 60" fill="none" xmlns="http://www.w3.org/2000/svg">
<path fill-rule="evenodd" clip-rule="evenodd" d="M30 0C13.4315 0 0 13.4315 0 30C0 46.5685 13.4315 60 30 60C46.5685 60 60 46.5685 60 30C60 13.4315 46.5685 0 30 0ZM23.4041 14.0966C25.1108 14.019 25.6561 14 30.0015 14H29.9965C34.3433 14 34.8865 14.019 36.5933 14.0966C38.2966 14.1746 39.4599 14.4444 40.48 14.84C41.5332 15.2484 42.4233 15.795 43.3133 16.685C44.2034 17.5744 44.75 18.467 45.16 19.5194C45.5534 20.5368 45.8234 21.6994 45.9034 23.4028C45.98 25.1095 46 25.6547 46 30.0001C46 34.3455 45.98 34.8895 45.9034 36.5963C45.8234 38.2989 45.5534 39.4619 45.16 40.4796C44.75 41.5316 44.2034 42.4243 43.3133 43.3136C42.4243 44.2036 41.533 44.7516 40.481 45.1604C39.4629 45.556 38.2989 45.8256 36.5956 45.9036C34.8889 45.9814 34.3452 46.0004 29.9995 46.0004C25.6545 46.0004 25.1095 45.9814 23.4028 45.9036C21.6998 45.8256 20.5367 45.556 19.5187 45.1604C18.467 44.7516 17.5744 44.2036 16.6854 43.3136C15.7956 42.4243 15.249 41.5316 14.84 40.4792C14.4446 39.4619 14.175 38.2992 14.0966 36.5959C14.0194 34.8892 14 34.3455 14 30.0001C14 25.6547 14.02 25.1091 14.0964 23.4024C14.173 21.6998 14.443 20.5368 14.8396 19.519C15.2496 18.467 15.7964 17.5744 16.6864 16.685C17.5758 15.7954 18.4684 15.2486 19.5208 14.84C20.5381 14.4444 21.7008 14.1746 23.4041 14.0966Z" fill="#FF8126"/>
<path fill-rule="evenodd" clip-rule="evenodd" d="M28.5663 16.8834C28.8449 16.883 29.1448 16.8831 29.4683 16.8833L30.0016 16.8834C34.2736 16.8834 34.78 16.8988 36.467 16.9754C38.027 17.0468 38.8736 17.3074 39.4376 17.5264C40.1844 17.8164 40.7166 18.1631 41.2764 18.7231C41.8364 19.2831 42.183 19.8165 42.4738 20.5631C42.6928 21.1265 42.9538 21.9731 43.0248 23.5331C43.1014 25.2199 43.118 25.7265 43.118 29.9965C43.118 34.2666 43.1014 34.7733 43.0248 36.46C42.9534 38.02 42.6928 38.8666 42.4738 39.43C42.1838 40.1766 41.8364 40.7084 41.2764 41.268C40.7164 41.828 40.1846 42.1748 39.4376 42.4648C38.8744 42.6848 38.027 42.9448 36.467 43.016C34.7803 43.0928 34.2736 43.1094 30.0016 43.1094C25.7293 43.1094 25.2229 43.0928 23.5361 43.016C21.9761 42.944 21.1295 42.6834 20.5651 42.4644C19.8185 42.1744 19.2851 41.8276 18.7251 41.2676C18.1651 40.7076 17.8185 40.1756 17.5278 39.4286C17.3088 38.8654 17.0478 38.0186 16.9768 36.4586C16.9001 34.772 16.8848 34.2653 16.8848 29.9925C16.8848 25.7199 16.9001 25.2159 16.9768 23.5291C17.0481 21.9691 17.3088 21.1225 17.5278 20.5585C17.8178 19.8118 18.1651 19.2785 18.7251 18.7185C19.2851 18.1585 19.8185 17.8118 20.5651 17.5211C21.1291 17.3011 21.9761 17.0411 23.5361 16.9694C25.0121 16.9028 25.5843 16.8828 28.5663 16.8794V16.8834ZM38.5424 19.5401C37.4824 19.5401 36.6223 20.3991 36.6223 21.4595C36.6223 22.5195 37.4824 23.3795 38.5424 23.3795C39.6024 23.3795 40.4624 22.5195 40.4624 21.4595C40.4624 20.3995 39.6024 19.5395 38.5424 19.5395V19.5401ZM21.7849 30.0003C21.7849 25.4626 25.4636 21.7836 30.0013 21.7835C34.539 21.7835 38.217 25.4625 38.217 30.0003C38.217 34.538 34.5393 38.2154 30.0016 38.2154C25.4639 38.2154 21.7849 34.538 21.7849 30.0003Z" fill="#FF8126"/>
<path d="M30.0015 24.6667C32.9469 24.6667 35.3349 27.0545 35.3349 30.0001C35.3349 32.9455 32.9469 35.3335 30.0015 35.3335C27.0559 35.3335 24.6681 32.9455 24.6681 30.0001C24.6681 27.0545 27.0559 24.6667 30.0015 24.6667Z" fill="#FF8126"/>
</svg>
