<svg width="100" height="130" viewBox="0 0 100 130" fill="none" xmlns="http://www.w3.org/2000/svg">
<g clip-path="url(#clip0_40_20)">
<path d="M39.8177 105.494C39.7164 104.996 39.5137 104.697 39.2098 104.697C38.8045 104.697 38.6019 104.996 38.6019 105.594C38.5006 106.192 38.5006 106.889 38.5006 107.786C38.5006 107.885 38.5006 107.985 38.5006 108.084C38.5006 108.184 38.5006 108.284 38.5006 108.383C38.5006 108.483 38.5006 108.582 38.5006 108.682C38.5006 108.782 38.5006 108.881 38.5006 108.881C38.5006 109.778 38.5006 110.575 38.6019 111.172C38.7032 111.77 38.9058 112.169 39.2098 112.169C39.6151 112.169 39.8177 111.87 39.919 111.272C40.0203 110.674 40.0203 109.877 40.0203 108.881H42.4519C42.4519 110.575 42.3506 111.87 42.0467 112.966C41.7427 113.962 40.8309 114.46 39.3111 114.46C37.7913 114.46 36.6769 113.862 36.069 112.667C35.4611 111.471 35.1571 110.077 35.1571 108.483C35.1571 106.789 35.4611 105.395 36.1703 104.199C36.7782 103.004 37.8927 102.406 39.4124 102.506C39.6151 102.506 39.8177 102.605 39.919 102.605C40.0203 102.605 40.223 102.705 40.223 102.705C40.3243 102.805 40.4256 102.805 40.4256 102.805C40.5269 102.805 40.5269 102.904 40.5269 102.904C40.6282 102.904 40.6282 102.904 40.7295 102.805C40.8309 102.805 40.9322 102.705 41.0335 102.605H42.4519V107.387H40.1216C40.0203 106.59 39.919 105.992 39.8177 105.494Z" fill="white"/>
<path d="M46.9099 104.996C46.8085 105.096 46.7072 105.196 46.6059 105.295V111.671C46.7072 111.87 46.8085 111.969 46.9099 112.069C47.0112 112.169 47.2138 112.169 47.5178 112.169V114.261H42.6545V112.169C42.8572 112.169 43.0598 112.169 43.2624 112.069C43.4651 111.969 43.4651 111.87 43.5664 111.77V105.295C43.5664 105.295 43.5664 105.295 43.5664 105.196C43.4651 105.096 43.4651 105.096 43.3638 104.996C43.2624 104.996 43.1611 104.897 43.0598 104.897H42.9585H42.8572V102.605H47.7204V104.797C47.2138 104.797 47.0112 104.897 46.9099 104.996Z" fill="white"/>
<path d="M49.8481 112.169C49.9494 112.169 49.9494 112.169 50.0507 112.169C50.152 112.169 50.152 112.169 50.2533 112.069C50.3546 112.069 50.3547 111.969 50.456 111.969C50.456 111.969 50.456 111.87 50.5573 111.87L50.6586 111.77V105.195C50.6586 105.096 50.6586 104.996 50.6586 104.996C50.6586 104.996 50.5573 104.996 50.3547 104.996C50.152 105.096 50.0507 105.195 49.9494 105.295C49.8481 105.395 49.8481 105.494 49.7467 105.594C49.7467 105.694 49.7467 105.694 49.7467 105.793C49.7467 105.893 49.7467 105.893 49.7467 105.992V106.092V106.192V107.786H48.227V102.805H56.1297V107.786H54.61V106.192V106.092C54.61 105.992 54.61 105.992 54.61 105.893C54.61 105.694 54.5087 105.594 54.5087 105.395C54.4073 105.195 54.306 105.096 54.2047 104.996C54.0021 104.996 53.9008 104.996 53.9008 104.996C53.7994 104.996 53.7994 105.096 53.7994 105.195V111.87C53.7994 111.969 53.9008 111.969 53.9008 111.969C53.9008 111.969 53.9008 112.069 54.0021 112.069L54.1034 112.169C54.1034 112.169 54.2047 112.169 54.306 112.268C54.306 112.268 54.4073 112.268 54.5087 112.268C54.61 112.268 54.7113 112.268 54.7113 112.368V114.46H49.6454V112.268C49.7467 112.169 49.7467 112.169 49.8481 112.169Z" fill="white"/>
<path d="M60.689 104.797C60.689 104.897 60.689 104.897 60.689 104.797C60.5877 104.897 60.5877 104.897 60.4863 104.897L60.385 104.996C60.385 105.096 60.2837 105.096 60.2837 105.196C60.2837 105.196 60.2837 105.196 60.2837 105.295C60.2837 105.295 60.2837 105.295 60.2837 105.395L60.9929 106.59L61.3982 105.395C61.3982 105.295 61.3982 105.295 61.3982 105.295C61.3982 105.295 61.3982 105.196 61.2969 105.196C61.2969 105.196 61.2969 105.096 61.1956 105.096L61.0942 104.996V102.805H64.6403V104.996C64.6403 104.996 64.6403 104.996 64.539 104.996C64.3364 104.996 64.1338 104.996 63.9311 105.096C63.7285 105.196 63.6272 105.295 63.5259 105.494L62.1074 109.479V111.77C62.2087 111.969 62.31 112.069 62.4114 112.169C62.5127 112.268 62.7153 112.268 62.8166 112.368C62.8166 112.368 62.8166 112.368 62.918 112.368C62.918 112.368 62.918 112.368 63.0193 112.368V114.46H58.2574V112.368C58.2574 112.368 58.2574 112.368 58.3587 112.368C58.3587 112.368 58.3587 112.368 58.46 112.368C58.6626 112.268 58.7639 112.268 58.8653 112.169C58.9666 112.069 59.0679 111.969 59.0679 111.77V109.479L57.1429 105.395C57.1429 105.395 57.1429 105.395 57.1429 105.295C57.1429 105.295 57.1429 105.295 57.1429 105.196C57.0416 105.096 56.9402 104.996 56.8389 104.897C56.7376 104.797 56.6363 104.797 56.4337 104.797V102.605H60.7903V104.797H60.689Z" fill="white"/>
<path d="M28.4701 118.445C29.078 118.644 29.6859 119.042 30.0912 119.64C30.2939 119.839 30.3952 120.138 30.4965 120.437C30.5978 120.736 30.6991 121.035 30.6991 121.333V121.433V121.533C30.6991 121.832 30.6991 122.031 30.5978 122.33C30.4965 122.629 30.3952 122.828 30.2939 123.027C30.1925 123.127 30.0912 123.226 30.0912 123.326C29.9899 123.425 29.9899 123.425 29.8886 123.525C29.8886 123.625 29.7873 123.625 29.6859 123.724C29.5846 123.824 29.4833 123.824 29.382 123.924C29.7873 124.123 30.0912 124.422 30.3952 124.82C30.6991 125.219 30.8004 125.617 30.9018 126.115C30.9018 126.215 30.9018 126.314 30.9018 126.414C30.9018 126.514 30.9018 126.613 30.9018 126.713C30.9018 126.912 30.9018 127.111 30.9018 127.31C30.9018 127.51 30.8004 127.709 30.8004 127.908C30.6991 128.307 30.3952 128.705 30.0912 129.004C29.7873 129.303 29.382 129.502 29.078 129.701C28.8754 129.701 28.6728 129.801 28.4701 129.801C28.2675 129.801 28.0649 129.801 27.8622 129.901C27.6596 129.901 27.457 129.901 27.2543 129.901C27.0517 129.901 26.8491 129.901 26.6464 129.901H22.5938V127.809H22.6951H22.7964C22.8977 127.809 22.999 127.709 23.2017 127.709C23.303 127.609 23.4043 127.51 23.5056 127.41V121.134C23.5056 121.134 23.5056 121.134 23.5056 121.035V120.935C23.4043 120.835 23.303 120.636 23.2017 120.636C23.1003 120.537 22.8977 120.537 22.6951 120.437V118.245H26.6464C27.153 118.245 27.8622 118.345 28.4701 118.445ZM27.6596 121.931C27.6596 121.333 27.5583 121.035 27.3557 120.935C27.153 120.835 26.9504 120.736 26.7478 120.835H26.6464H26.5451L26.4438 123.127H26.5451H26.6464C26.8491 123.127 27.0517 123.127 27.2543 123.027C27.5583 122.828 27.6596 122.529 27.6596 121.931ZM27.6596 126.414C27.6596 125.816 27.5583 125.517 27.457 125.318C27.3557 125.119 27.153 125.119 26.9504 125.119H26.8491H26.7478H26.6464H26.5451L26.4438 127.709H26.5451H26.6464C26.8491 127.709 27.0517 127.709 27.2543 127.609C27.5583 127.51 27.6596 127.111 27.6596 126.414Z" fill="white"/>
<path d="M39.615 127.211C39.615 127.311 39.615 127.41 39.7163 127.51C39.8177 127.609 39.919 127.609 40.0203 127.709H40.1216H40.2229V129.801H35.765V127.609C35.765 127.609 35.765 127.609 35.8663 127.609C35.8663 127.609 35.8663 127.609 35.9676 127.609C36.0689 127.609 36.1702 127.51 36.2715 127.41C36.3729 127.311 36.3729 127.211 36.3729 127.111L36.1702 126.314H34.8531L34.6505 127.111C34.6505 127.211 34.7518 127.311 34.8531 127.41C34.9544 127.51 35.1571 127.51 35.3597 127.51V129.602H31.4083V127.41C31.5096 127.41 31.5096 127.41 31.611 127.41H31.7123C31.8136 127.41 31.9149 127.311 31.9149 127.311C32.0162 127.311 32.0162 127.211 32.1175 127.111C32.1175 127.111 32.1175 127.012 32.2189 127.012C32.2189 127.012 32.2189 126.912 32.3202 126.912L34.1439 117.947H37.4874L39.615 127.211ZM34.8531 124.92H35.9676L35.3597 122.529L34.8531 124.92Z" fill="white"/>
<path d="M50.0507 120.337C49.9494 120.337 49.9494 120.437 49.848 120.437C49.7467 120.437 49.7467 120.437 49.6454 120.537C49.5441 120.537 49.4428 120.636 49.3415 120.636C49.2401 120.636 49.1388 120.736 49.1388 120.835C49.0375 120.935 48.8349 121.134 48.6322 121.433C48.4296 121.732 48.227 122.031 47.8217 122.628L49.5441 127.41C49.5441 127.51 49.6454 127.51 49.6454 127.609L49.7467 127.709L49.848 127.809C49.848 127.809 49.9494 127.908 50.0507 127.908C50.0507 127.908 50.152 127.908 50.152 128.008C50.152 128.008 50.2533 128.008 50.2533 128.107L50.152 130.199H45.7954V128.107C45.8967 128.107 45.8967 128.008 45.998 128.008C45.998 128.008 46.0993 127.908 46.0993 127.809C46.0993 127.809 46.0993 127.809 46.0993 127.709C46.0993 127.709 46.0993 127.709 46.0993 127.609L45.4914 125.617C45.4914 125.617 45.4914 125.617 45.3901 125.717C45.2888 125.816 45.2888 125.816 45.1874 125.916C45.0861 126.015 45.0861 126.015 44.9848 126.115C44.8835 126.215 44.8835 126.215 44.8835 126.215V127.41C44.8835 127.51 44.8835 127.709 44.9848 127.709C45.0861 127.809 45.0861 127.809 45.1874 127.908C45.1874 127.908 45.2888 127.908 45.2888 128.008C45.2888 128.008 45.3901 128.008 45.3901 128.107V130.1H40.9321V128.107C40.9321 128.107 41.0334 128.107 41.0334 128.008C41.0334 128.008 41.1348 128.008 41.1348 127.908C41.2361 127.908 41.2361 127.809 41.3374 127.809L41.4387 127.709L41.54 127.609L41.6413 127.51V121.234C41.6413 121.035 41.54 120.935 41.4387 120.835C41.3374 120.736 41.2361 120.736 41.1348 120.636H41.0334H40.9321V118.544H45.3901V120.736C45.2888 120.835 45.0861 120.835 44.9848 120.935C44.8835 121.035 44.8835 121.134 44.8835 121.234V123.127C45.3901 122.429 45.7953 121.931 45.8967 121.533C46.0993 121.134 46.0993 120.935 46.0993 120.835C46.0993 120.736 46.0993 120.736 46.0993 120.736C46.0993 120.736 46.0993 120.736 46.0993 120.636V118.445L50.152 118.345V120.337H50.0507Z" fill="white"/>
<path d="M58.6626 122.728H56.9402V120.835C56.9402 120.636 56.8389 120.537 56.6363 120.437C56.4336 120.337 56.1297 120.337 55.9271 120.337C55.6231 120.337 55.4205 120.437 55.1165 120.537C54.9139 120.636 54.7113 120.835 54.7113 121.035V122.828C55.0152 122.828 55.2178 122.828 55.2178 122.629C55.3192 122.529 55.3192 122.33 55.3192 121.931H56.231V125.816H55.3192C55.3192 125.418 55.3192 125.219 55.2178 125.119C55.1165 125.019 54.9139 125.019 54.7113 125.019V127.211C54.7113 127.41 54.8126 127.51 55.1165 127.609C55.3192 127.709 55.6231 127.809 55.9271 127.809C56.231 127.809 56.4336 127.709 56.7376 127.609C56.9402 127.51 57.0415 127.31 57.0415 127.111V124.72H58.7639V129.901H50.8612V127.709C51.0638 127.709 51.2665 127.709 51.4691 127.51C51.6717 127.41 51.7731 127.211 51.7731 127.012V120.935C51.7731 120.736 51.6717 120.636 51.5704 120.537C51.3678 120.437 51.1652 120.337 50.9625 120.337V118.146H58.8653V122.728H58.6626Z" fill="white"/>
<path d="M65.147 118.445C65.7549 118.644 66.3628 119.042 66.768 119.64C66.9707 119.839 67.072 120.138 67.1733 120.437C67.2746 120.736 67.3759 121.035 67.3759 121.334V121.433V121.533C67.3759 121.832 67.3759 122.031 67.2746 122.33C67.1733 122.629 67.072 122.828 66.9707 123.027C66.9707 123.127 66.9707 123.127 66.8693 123.226C66.768 123.326 66.768 123.425 66.6667 123.525L66.5654 123.625L66.4641 123.724C66.3628 123.824 66.2615 123.924 66.1601 123.924C66.0588 124.023 65.9575 124.023 65.9575 124.023C66.4641 124.123 66.8693 124.422 66.9707 124.82C67.1733 125.219 67.2746 125.617 67.2746 126.016C67.2746 126.115 67.2746 126.115 67.2746 126.215C67.2746 126.314 67.2746 126.314 67.2746 126.414C67.2746 126.514 67.2746 126.613 67.2746 126.812C67.2746 126.912 67.2746 127.012 67.2746 127.211C67.2746 127.51 67.2746 127.709 67.2746 127.809C67.2746 128.008 67.2746 128.107 67.3759 128.107C67.4773 128.107 67.5786 128.107 67.5786 128.008C67.5786 127.908 67.6799 127.908 67.6799 127.809V127.709V127.609H67.9838C67.9838 127.609 67.9838 127.609 67.9838 127.709C67.9838 127.709 67.9838 127.809 67.9838 127.908C67.9838 128.008 67.9838 128.107 67.9838 128.207C67.9838 128.307 67.9838 128.406 67.9838 128.506C67.9838 128.606 67.9838 128.705 67.8825 128.904C67.7812 129.203 67.5786 129.502 67.2746 129.801C66.9707 130.1 66.5654 130.199 65.8562 130.199C65.0456 130.199 64.5391 129.901 64.4377 129.402C64.2351 128.904 64.2351 128.307 64.1338 127.709C64.1338 127.609 64.1338 127.609 64.1338 127.609V127.51V127.41V127.311C64.1338 126.912 64.1338 126.414 64.0325 126.016C64.0325 125.617 63.8298 125.219 63.6272 124.92L63.5259 124.82C63.5259 124.82 63.4246 124.82 63.4246 124.72H63.3233H63.2219V127.609C63.3233 127.809 63.4246 127.908 63.5259 127.908C63.6272 128.008 63.8298 128.008 64.0325 128.008V130.1H59.1693V128.008H59.2706H59.3719C59.4732 128.008 59.5745 127.908 59.7772 127.908C59.8785 127.809 59.9798 127.709 60.0811 127.609V121.334C60.0811 121.334 60.0811 121.334 60.0811 121.234V121.134C59.9798 121.035 59.8785 120.835 59.7772 120.835C59.6758 120.736 59.4732 120.736 59.2706 120.636V118.445H63.2219C63.7285 118.245 64.4377 118.345 65.147 118.445ZM64.2351 121.931C64.2351 121.334 64.1338 121.035 63.9312 120.935C63.7285 120.835 63.5259 120.736 63.3233 120.835H63.2219H63.1206L63.0193 123.127H63.1206H63.2219C63.4246 123.127 63.6272 123.127 63.8298 123.027C64.1338 122.828 64.2351 122.529 64.2351 121.931Z" fill="white"/>
<path d="M73.151 120.337C73.151 120.437 73.151 120.437 73.151 120.337C73.0497 120.437 73.0497 120.437 72.9484 120.437L72.8471 120.537C72.8471 120.636 72.7457 120.636 72.7457 120.736C72.7457 120.736 72.7457 120.736 72.7457 120.835C72.7457 120.835 72.7457 120.835 72.7457 120.935L73.455 122.13L73.8602 120.935C73.8602 120.835 73.8602 120.835 73.8602 120.835C73.8602 120.835 73.8602 120.736 73.7589 120.736C73.7589 120.736 73.7589 120.636 73.6576 120.636L73.5563 120.537V118.345H77.1024V120.537C77.1024 120.537 77.1024 120.537 77.0011 120.537C76.8997 120.537 77.0011 120.537 77.0011 120.537C76.7984 120.537 76.5958 120.537 76.3932 120.636C76.1905 120.736 76.0892 120.835 75.9879 121.035L74.5694 125.019V127.311C74.6708 127.51 74.7721 127.609 74.8734 127.709C74.9747 127.809 75.1774 127.809 75.2787 127.908C75.2787 127.908 75.2787 127.908 75.38 127.908C75.38 127.908 75.38 127.908 75.4813 127.908V130H70.7194V127.908C70.7194 127.908 70.7194 127.908 70.8207 127.908C70.8207 127.908 70.8207 127.908 70.922 127.908C71.1247 127.809 71.226 127.809 71.3273 127.709C71.4286 127.609 71.5299 127.51 71.5299 127.311V125.019L69.6049 120.935C69.6049 120.935 69.6049 120.935 69.6049 120.835C69.6049 120.835 69.6049 120.835 69.6049 120.736C69.5036 120.636 69.4023 120.537 69.301 120.437C69.1996 120.337 69.0983 120.337 68.8957 120.337V118.146H73.2523V120.337H73.151Z" fill="white"/>
<path d="M5.16718 82.6824V73.2188H8.40932V74.4141H6.58562V77.2034H8.20669V78.3988H6.58562V81.3873H8.40932V82.6824H5.16718Z" fill="white"/>
<path d="M9.42249 80.0918V79.2949H10.8409V80.2911C10.8409 80.7891 10.8409 81.1876 10.9422 81.3868C11.0436 81.5861 11.2462 81.6857 11.4488 81.6857C11.6515 81.6857 11.8541 81.5861 11.9554 81.3868C12.0567 81.1876 12.0567 80.8888 12.0567 80.4903C12.0567 80.0918 11.9554 79.793 11.8541 79.4941C11.7528 79.1953 11.4488 78.8964 11.1449 78.5976L10.4357 77.9003C10.1317 77.5018 9.82775 77.1033 9.72644 76.7049C9.5238 76.3064 9.42249 75.9079 9.42249 75.4098C9.42249 74.6129 9.62512 74.0152 9.92907 73.7164C10.233 73.3179 10.7396 73.1187 11.5501 73.1187C12.2594 73.1187 12.766 73.3179 13.0699 73.816C13.3739 74.2144 13.4752 74.9118 13.4752 75.7087V76.3064H12.158V75.7087C12.158 75.2106 12.158 74.9118 12.0567 74.7125C11.9554 74.5133 11.8541 74.4137 11.5501 74.4137C11.3475 74.4137 11.1449 74.5133 11.0436 74.6129C10.9422 74.8121 10.9422 75.0114 10.9422 75.3102C10.9422 75.6091 10.9422 75.8083 11.1449 76.0075C11.2462 76.2068 11.4488 76.406 11.6515 76.7049L12.462 77.5018C12.8673 77.9003 13.1712 78.3983 13.3739 78.7968C13.5765 79.1953 13.6778 79.6934 13.6778 80.1914C13.6778 81.088 13.5765 81.6857 13.2725 82.1838C12.9686 82.5823 12.462 82.7815 11.6515 82.7815C10.9422 82.7815 10.3343 82.5823 10.0304 82.0842C9.5238 81.6857 9.42249 80.9884 9.42249 80.0918Z" fill="white"/>
<path d="M14.9949 82.6819V74.5133H13.8804V73.3179H17.5278V74.5133H16.4134V82.6819H14.9949Z" fill="white"/>
<path d="M18.3384 82.6819V73.2183H20.466C21.1753 73.2183 21.6818 73.4175 21.9858 73.816C22.2897 74.2144 22.4924 74.8121 22.4924 75.6091V79.8926C22.4924 80.8888 22.2897 81.5861 21.9858 81.9846C21.6818 82.383 21.1753 82.6819 20.3647 82.6819H18.3384ZM19.8581 81.5861H20.2634C20.5674 81.5861 20.77 81.4865 20.8713 81.2872C20.9726 81.088 21.0739 80.7891 21.0739 80.3907V75.7087C21.0739 75.2106 20.9726 74.9117 20.8713 74.7125C20.77 74.5133 20.5674 74.4137 20.2634 74.4137H19.8581V81.5861Z" fill="white"/>
<path d="M80.2432 82.6819V75.0114C80.1419 75.111 79.9393 75.3102 79.7366 75.3102C79.534 75.4098 79.3314 75.4098 79.0274 75.4098V74.3141C79.3314 74.3141 79.6353 74.1148 79.9393 73.9156C80.2432 73.7163 80.4458 73.4175 80.5472 73.1187H81.6616V82.6819H80.2432Z" fill="white"/>
<path d="M86.5249 82.1838C86.2209 82.5822 85.7143 82.8811 85.0051 82.8811C84.2959 82.8811 83.7893 82.6819 83.4853 82.2834C83.1814 81.8849 82.9788 81.2872 82.9788 80.4903V79.9922H84.3972V80.1914C84.3972 80.7891 84.3972 81.1876 84.4985 81.3868C84.5998 81.5861 84.7011 81.6857 84.9038 81.6857C85.1064 81.6857 85.2077 81.6857 85.309 81.5861C85.309 81.4865 85.4104 81.3868 85.4104 81.2872C85.4104 81.1876 85.4104 80.8888 85.4104 80.4903V79.0957C85.2077 79.1953 84.9038 79.2949 84.4985 79.2949C83.8906 79.2949 83.384 79.0957 83.0801 78.5976C82.7761 78.0995 82.6748 77.4022 82.6748 76.5056V76.2068C82.6748 75.0114 82.8774 74.2144 83.2827 73.816C83.5867 73.5171 84.0932 73.3179 84.7011 73.3179C85.309 73.3179 85.8156 73.4175 86.0183 73.7163C86.3222 73.9156 86.5249 74.314 86.6262 74.7125C86.7275 75.111 86.7275 75.7087 86.7275 76.3064V80.0918C86.9301 80.8888 86.8288 81.6857 86.5249 82.1838ZM84.9038 77.9999C85.3091 77.9999 85.5117 77.8006 85.5117 77.5018V75.7087C85.5117 75.2106 85.5117 74.9117 85.4104 74.7125C85.3091 74.5133 85.2077 74.4137 84.9038 74.4137C84.7011 74.4137 84.4985 74.5133 84.3972 74.7125C84.2959 74.9117 84.2959 75.2106 84.2959 75.7087V76.5056C84.2959 77.0037 84.2959 77.4022 84.3972 77.6014C84.4985 77.9003 84.7011 77.9999 84.9038 77.9999Z" fill="white"/>
<path d="M90.2736 82.7815C88.9565 82.7815 88.3486 82.1838 88.3486 80.8888V79.6934H89.6657V80.6895C89.6657 81.088 89.767 81.3869 89.9697 81.4865C90.071 81.4865 90.1723 81.5861 90.2736 81.5861C90.5775 81.5861 90.7802 81.2872 90.7802 80.6895V78.2987C90.7802 77.9999 90.7802 77.701 90.6789 77.5018C90.5776 77.3026 90.4762 77.2029 90.2736 77.2029C89.8683 77.2029 89.6657 77.5018 89.6657 78.0995L88.3486 77.9999V73.2183H91.8947V74.5133H89.6657V76.406C89.767 76.3064 89.8683 76.2068 90.071 76.1072C90.2736 76.0075 90.4762 76.0075 90.6789 76.0075C91.2868 76.0075 91.5907 76.2068 91.8947 76.7049C92.0973 77.2029 92.1986 77.9999 92.1986 78.996C92.1986 80.0918 92.1986 80.7891 92.0973 81.1876C91.996 81.5861 91.8947 81.8849 91.7934 82.0842C91.4894 82.5823 90.9828 82.7815 90.2736 82.7815Z" fill="white"/>
<path d="M94.225 82.6819V75.0114C94.1236 75.111 93.921 75.3102 93.7184 75.3102C93.5157 75.4098 93.3131 75.4098 93.0092 75.4098V74.3141C93.3131 74.3141 93.6171 74.1148 93.921 73.9156C94.225 73.7163 94.4276 73.4175 94.5289 73.1187H95.6434V82.6819H94.225Z" fill="white"/>
<path d="M74.6708 8.56704C72.7457 7.67049 70.5168 8.46743 69.7062 10.4598C68.997 12.2529 69.5036 14.2452 71.0233 15.341L60.385 32.8736C59.8785 32.4751 59.3719 32.1762 58.8653 31.8774L61.0943 10.4598C61.2969 10.4598 61.4995 10.4598 61.6008 10.4598C63.4246 10.3601 64.9443 8.96551 65.2483 6.97317C65.4509 4.7816 63.9311 2.88888 61.9048 2.59003C61.6008 2.59003 61.3982 2.59003 61.0943 2.59003C59.2706 2.68965 57.6495 4.08428 57.4468 6.07662C57.2442 7.96934 58.46 9.76245 60.0811 10.2605L54.7113 29.7854C54.4073 29.6858 54.1034 29.5862 53.7994 29.5862C53.6981 29.5862 53.6981 29.5862 53.5968 29.4866C53.3942 29.387 53.1915 29.387 52.8876 29.387C52.6849 29.387 52.5836 29.2874 52.381 29.2874L50.3546 7.86973H50.456C52.1784 7.67049 53.5968 6.27586 53.7994 4.38313C54.0021 2.19156 52.4823 0.298843 50.456 0.0996094C50.3546 0.0996094 50.152 0.0996094 50.0507 0.0996094C49.9494 0.0996094 49.7467 0.0996094 49.6454 0.0996094C47.6191 0.298843 46.0993 2.29118 46.302 4.38313C46.5046 6.27586 47.923 7.67049 49.6454 7.86973H49.7467L47.6191 29.2874C47.4164 29.2874 47.3151 29.387 47.1125 29.387C46.9099 29.387 46.7072 29.4866 46.4033 29.4866C46.302 29.4866 46.302 29.4866 46.2006 29.5862C45.8967 29.6858 45.5927 29.6858 45.2888 29.7854L39.8177 10.2605C41.5401 9.76245 42.7559 7.96934 42.5532 6.07662C42.3506 4.08428 40.8308 2.68965 38.9058 2.59003C38.6019 2.59003 38.3992 2.59003 38.0953 2.59003C36.0689 2.78926 34.5492 4.7816 34.7518 6.97317C34.9544 8.96551 36.4742 10.4598 38.3992 10.4598C38.6019 10.4598 38.7032 10.4598 38.9058 10.4598L41.1348 31.8774C40.6282 32.1762 40.1216 32.4751 39.615 32.8736L28.9767 15.341C30.3952 14.2452 31.0031 12.1532 30.2939 10.4598C29.4833 8.46743 27.2543 7.67049 25.3293 8.56704C23.4043 9.46359 22.5938 11.8544 23.4043 13.8467C24.2148 15.8391 26.4438 16.636 28.3688 15.7395L36.7781 35.2644C36.3729 35.7625 36.0689 36.2605 35.6637 36.7586C37.7913 38.4521 38.8045 39.3487 38.8045 39.3487C39.7163 37.954 44.8835 36.659 49.9494 36.3601C54.9139 36.659 60.1824 37.954 61.0943 39.3487C61.0943 39.3487 62.1074 38.4521 64.2351 36.7586C63.9311 36.2605 63.5259 35.7625 63.1206 35.2644L71.5299 15.7395C73.455 16.7356 75.5826 15.8391 76.4945 13.8467C77.4063 11.8544 76.5958 9.46359 74.6708 8.56704Z" fill="white"/>
<path d="M92.1986 38.6515C90.9828 39.548 89.767 40.7434 88.2472 42.3373C87.842 42.7358 87.4367 43.2339 87.1327 43.6323C85.7143 45.2262 84.4985 46.4216 83.384 47.0193L79.6353 42.2377L58.5613 58.276L54.5086 61.3641L9.3212 95.7319L13.0699 100.514C12.1581 101.31 10.841 102.008 9.21988 102.805C8.7133 103.104 8.20671 103.303 7.70012 103.602C5.7751 104.598 4.25534 105.494 3.14085 106.391C-0.709196 109.28 -0.303928 111.571 0.810561 112.966C1.11451 113.364 1.82373 114.261 3.14085 114.36C4.45798 114.46 5.87642 113.862 7.70012 112.567C8.91593 111.671 10.2331 110.376 11.7528 108.782C12.462 107.985 13.0699 107.287 13.5765 106.69C14.2857 105.793 14.995 104.996 15.6029 104.498C15.7042 104.399 15.8055 104.299 15.9068 104.299L19.8582 109.28L65.0456 74.912L69.0983 71.8239L90.1723 55.686L86.3222 50.8047C86.5248 50.5059 86.7275 50.3067 87.0314 50.0078C87.6393 49.5097 88.6525 49.1113 89.6657 48.6132C90.4762 48.3143 91.2868 47.9158 92.1986 47.4178C94.1236 46.4216 95.7447 45.4254 96.9605 44.5289C98.7842 43.1342 99.6961 41.8392 99.8987 40.6438C100.101 39.3488 99.3921 38.5519 99.0882 38.1534C98.1763 36.7588 96.0487 35.7626 92.1986 38.6515ZM11.5502 104.996C11.0436 105.694 10.4357 106.291 9.82778 106.989C8.40934 108.483 7.19354 109.678 6.07905 110.475C4.35666 111.77 3.64744 111.87 3.34349 111.77C3.14085 111.77 3.03954 111.671 2.8369 111.372C2.229 110.575 3.54612 109.28 4.66061 108.383C5.67378 107.586 7.09222 106.69 8.91593 105.793C9.42252 105.494 9.9291 105.295 10.4357 104.996C11.0436 104.697 11.7528 104.399 12.2594 104C12.0568 104.399 11.7528 104.697 11.5502 104.996ZM86.6262 55.2875L67.5785 69.7319L63.5259 72.8201L20.2634 105.594L19.6555 104.797L62.8166 72.0231L66.8693 68.935L85.9169 54.4906L86.6262 55.2875ZM84.3972 52.4982L65.3496 66.9427L61.2969 70.0308L18.1358 102.805L12.8673 96.1304L56.0284 63.3565L60.0811 60.2683L79.1287 45.8239L84.3972 52.4982ZM97.4671 40.2454C97.4671 40.5442 97.1631 41.2415 95.4408 42.5365C94.3263 43.3335 92.9078 44.23 91.0841 45.2262C90.2736 45.6247 89.463 46.0231 88.6525 46.4216C88.2472 46.6208 87.9433 46.7204 87.6393 46.9197C88.1459 46.4216 88.5512 45.9235 89.0578 45.4254C89.463 45.027 89.767 44.6285 90.1723 44.1304C91.4894 42.7358 92.7052 41.5404 93.7184 40.7434C94.9342 39.8469 96.5552 38.8507 97.1631 39.7473C97.4671 39.9465 97.4671 40.0461 97.4671 40.2454Z" fill="white"/>
<path d="M96.9605 106.391C95.7447 105.494 94.225 104.598 92.4013 103.602C91.8947 103.303 91.3881 103.103 90.8815 102.805C89.2604 102.008 87.9433 101.31 87.0315 100.513L90.7802 95.7318L63.3233 74.8123C62.614 75.41 62.0061 75.908 61.2969 76.4061L87.1328 96.1303L81.8643 102.805L54.2047 81.8851C53.4955 82.3831 52.8876 82.9808 52.2797 83.4789L80.3445 104.797L79.7366 105.594L51.4692 84.1762C50.9626 84.5747 50.456 85.0728 49.9494 85.5709C49.8481 85.6705 49.6454 85.7701 49.5441 85.9693L80.1419 109.28L84.0933 104.299C84.1946 104.398 84.2959 104.398 84.3972 104.498C85.0051 104.996 85.7143 105.793 86.4236 106.69C86.9301 107.387 87.538 108.084 88.2473 108.782C89.767 110.375 91.0841 111.67 92.2999 112.567C94.1237 113.962 95.6434 114.559 96.8592 114.36C98.1763 114.261 98.7842 113.364 99.1895 112.966C100.405 111.571 100.811 109.28 96.9605 106.391ZM97.2645 111.372C97.0619 111.67 96.9605 111.77 96.7579 111.77C96.454 111.77 95.7447 111.77 94.0223 110.475C92.9079 109.678 91.692 108.483 90.2736 106.989C89.6657 106.291 89.0578 105.594 88.5512 104.996C88.3486 104.697 88.0446 104.398 87.842 104.1C88.4499 104.398 89.0578 104.697 89.6657 105.096C90.1723 105.295 90.6789 105.594 91.1855 105.893C92.9079 106.789 94.3263 107.686 95.4408 108.483C96.5553 109.28 97.8724 110.575 97.2645 111.372Z" fill="white"/>
<path d="M36.6765 76.0077C36.9805 75.8085 37.1831 75.5096 37.487 75.3104C37.8923 75.0115 38.2976 74.7127 38.7029 74.4138L36.4739 72.7203L32.4212 69.6322L13.4749 55.2874L14.0828 54.4904L33.1304 68.9349L37.1831 72.023L39.6147 73.9157C40.3239 73.4176 41.0331 72.9196 41.7424 72.4215L38.7029 70.1303L34.6502 67.0422L15.6025 52.4981L20.871 45.8238L39.9187 60.2682L43.9713 63.3563L49.0372 67.2414C49.8477 66.7433 50.557 66.3448 51.3675 65.8468L45.5924 61.364L41.5397 58.2759L20.4658 42.2376L16.717 47.0192C15.6025 46.4215 14.3867 45.2261 12.9683 43.6322C12.563 43.2337 12.1578 42.7356 11.8538 42.3372C10.4354 40.8429 9.11825 39.5479 7.90244 38.6514C4.05239 35.7625 1.92473 36.7586 0.911562 38.0537C0.607611 38.4521 -0.101609 39.3487 0.101025 40.5441C0.202342 41.8391 1.21551 43.1341 3.03922 44.5288C4.25503 45.4253 5.77478 46.4215 7.80113 47.4176C8.71298 47.9157 9.62484 48.3142 10.3341 48.613C11.4485 49.1111 12.3604 49.5096 13.0696 50.0077C13.3736 50.2069 13.5762 50.5058 13.7788 50.8046L9.92879 55.6858L30.9014 71.7242L34.9541 74.8123L36.6765 76.0077ZM11.3472 46.3219C10.5367 46.023 9.72615 45.6245 8.91562 45.1265C7.09191 44.1303 5.57215 43.2337 4.55898 42.4368C2.83659 41.1418 2.63395 40.4445 2.53264 40.1456C2.53264 39.9464 2.53264 39.8468 2.83659 39.5479C3.44449 38.751 5.06556 39.6475 6.28137 40.5441C7.29454 41.341 8.51035 42.4368 9.82747 43.931C10.2327 44.3295 10.638 44.8276 10.942 45.2261C11.4485 45.7242 11.8538 46.3219 12.3604 46.7203C12.0564 46.7203 11.7525 46.5211 11.3472 46.3219Z" fill="white"/>
</g>
<defs>
<clipPath id="clip0_40_20">
<rect width="100" height="130" fill="white"/>
</clipPath>
</defs>
</svg>
