<svg width="110" height="95" viewBox="0 0 110 95" fill="none" xmlns="http://www.w3.org/2000/svg">
<g clip-path="url(#clip0_39_41)">
<path d="M50.1207 21.0936L5.23066 32.7423C2.42016 33.4507 0.156139 35.8906 0.156139 38.2519L0 57.7713C0 60.0539 2.26402 62.4938 5.07452 63.2022L49.7303 74.3786C52.5408 75.087 57.0688 75.087 59.8793 74.2999L104.769 62.7299C107.58 62.0215 109.844 59.5816 109.844 57.2204L110 37.7009C110 35.4184 107.736 32.9785 104.925 32.2701L60.2697 21.0936C57.4592 20.3853 52.9312 20.3853 50.1207 21.0936Z" fill="#FF8126"/>
<path d="M54.7268 72.9619C52.9312 72.9619 51.2136 72.8045 49.9645 72.4896L8.1973 62.4151C5.23066 61.7067 2.88857 59.1881 2.88857 56.7481L3.04471 39.1964C3.04471 36.7564 5.3868 34.2378 8.43151 33.4507L50.3549 22.9826C51.682 22.6678 53.4776 22.4316 55.4294 22.4316C57.225 22.4316 58.9425 22.5891 60.1916 22.9039L101.881 32.8998C104.847 33.6081 107.19 36.1268 107.19 38.5667L107.033 56.1185C107.033 58.5584 104.691 61.0771 101.647 61.8641L59.7232 72.4109C58.396 72.7258 56.6004 72.9619 54.7268 72.9619ZM55.2733 24.0058C53.5557 24.0058 51.8382 24.1632 50.5891 24.478L8.74379 34.9461C6.47977 35.4971 4.6061 37.4648 4.52803 39.1176L4.44996 56.7481C4.44996 58.4797 6.32363 60.3687 8.58765 60.9196L50.2768 70.9155C51.4478 71.2303 53.0092 71.3877 54.7268 71.3877C56.4443 71.3877 58.1618 71.2303 59.4109 70.9155L101.334 60.4474C103.598 59.8964 105.472 57.9288 105.472 56.2759L105.628 38.7241C105.628 36.9925 103.754 35.1036 101.49 34.5526L59.7232 24.478C58.5522 24.1632 56.9908 24.0058 55.2733 24.0058Z" fill="white"/>
<path d="M43.797 46.9097C44.3435 46.831 44.8119 46.6736 45.3584 46.5162C46.5295 46.1226 47.2321 45.493 47.5444 44.7059C47.7005 44.2336 47.7786 43.8401 47.7786 43.3678C47.7786 42.2659 47.2321 41.4002 46.061 40.8492C45.1242 40.377 43.8751 40.1408 42.2356 40.1408C40.0497 40.1408 38.0979 40.5344 36.3804 41.2427C35.5216 41.6363 34.819 42.1085 34.1164 42.6595C33.1796 43.4466 32.7111 44.391 32.7111 45.2568C32.7111 46.2013 33.1796 46.831 34.1164 47.0671C34.1945 47.0671 34.4287 47.0671 34.4287 46.9097V46.7523L34.3506 46.6736C34.1945 46.5162 34.0383 46.4374 33.9603 46.3587C33.8041 46.1226 33.7261 45.8865 33.7261 45.5717C33.7261 45.0994 34.0383 44.4698 34.741 43.7614C35.4436 43.053 36.2243 42.5021 37.005 42.1085C38.5664 41.4002 40.362 41.0066 42.3137 41.0066C43.5628 41.0066 44.4997 41.164 45.2023 41.5576C45.983 41.9511 46.3733 42.5021 46.3733 43.3678C46.3733 43.6827 46.2952 44.0762 46.1391 44.4698C45.9049 45.0994 45.4365 45.5717 44.5777 45.8865C43.9532 46.1226 43.1725 46.28 42.3918 46.28C42.2356 46.28 42.0014 46.28 41.6891 46.28C41.6111 46.28 41.533 46.2013 41.4549 46.2013C41.3769 46.2013 41.2988 46.1226 41.1427 46.1226C40.6742 45.9652 40.2058 46.0439 39.9716 46.3587C39.8935 46.3587 39.8155 46.4374 39.8155 46.5949C39.8155 46.9884 40.362 47.0671 40.8304 47.1458C41.3769 47.2245 41.7672 47.3032 42.0014 47.3032C42.4698 47.4606 42.9383 47.7755 43.2505 48.169C43.5628 48.5625 43.719 48.9561 43.719 49.3496C43.719 49.7432 43.6409 50.1367 43.4067 50.5302C42.9383 51.396 42.3137 52.1044 41.3769 52.6553C40.5181 53.2063 39.5813 53.5211 38.7225 53.5211C37.3172 53.5211 36.2243 52.8128 35.5216 51.4747C36.6927 50.3728 38.0199 48.8774 39.3471 46.9884C39.5032 46.7523 40.2058 46.0439 41.2207 45.0207C42.2356 43.9975 42.9383 43.3679 43.3286 43.2104C43.9532 43.1317 44.0312 42.8169 44.0312 42.5808C44.0312 42.4234 43.9532 42.1872 43.719 42.0298C43.3286 41.7937 42.7821 41.7937 42.2356 42.0298C41.533 42.2659 40.2058 43.7614 38.0979 46.5162L36.3804 48.7987C35.912 49.507 35.4436 50.058 35.1313 50.3728L34.741 48.7987C34.5067 48.0903 34.1945 47.7755 33.7261 47.7755C33.5699 47.7755 33.4138 47.7755 33.1796 47.8542C32.7111 48.0903 32.2427 48.6413 31.6182 49.6645C31.0717 50.6877 30.7594 51.5534 30.7594 52.2618C30.7594 53.0489 30.9936 53.5211 31.462 53.7573C32.0085 54.0721 33.0234 53.5998 34.5067 52.3405C35.2874 53.5998 36.6927 54.3082 38.6444 54.3082C39.9716 54.3082 41.2988 53.9934 42.5479 53.3637C43.797 52.7341 44.6558 51.947 45.1242 51.0025C45.3584 50.6089 45.4365 50.1367 45.4365 49.5857C45.4365 48.7987 45.1242 48.0903 44.5777 47.5394C44.3435 47.2245 44.0312 46.9884 43.797 46.9097ZM31.8524 52.1044C31.8524 51.3173 32.3208 50.2941 33.1796 49.0348C33.2576 49.1135 33.5699 49.4283 34.1945 51.396C32.8673 52.7341 32.3208 52.9702 32.0866 52.9702C31.9304 52.7341 31.8524 52.4192 31.8524 52.1044Z" fill="white"/>
<path d="M80.8801 47.3819C80.5678 47.3819 80.2555 47.5394 79.9432 47.8542C79.709 48.169 79.4748 48.4051 79.3967 48.5626C78.7722 49.1922 77.8353 49.9793 76.6643 50.9238C74.6345 52.4979 74.2442 52.3405 74.2442 52.2618C74.2442 52.0257 74.4784 51.4747 75.8836 49.9793C77.6011 48.0903 77.6011 48.0116 77.6011 47.8542C77.6011 47.6181 77.5231 47.2245 76.7424 47.2245C76.4301 47.2245 75.8836 47.4606 74.5564 49.1922C74.4003 49.4283 74.2442 49.6645 74.088 49.9006C74.0099 49.9793 73.8538 50.2154 73.6196 50.4515C73.2292 50.9238 72.7608 51.3173 72.2924 51.6321C71.5117 52.2618 70.8091 52.4979 70.2626 52.4979C69.7942 52.4979 69.638 52.2618 69.638 51.7896C69.638 51.2386 70.0284 50.4515 70.8091 49.4283L72.1363 47.7755V47.6968C72.2143 47.5394 72.2143 47.3819 71.9801 47.1458C71.824 46.9884 71.6679 46.9097 71.5117 46.9097C71.3556 46.9097 71.2775 46.9097 71.1994 46.9884L70.731 47.3032C70.4968 47.4606 70.2626 47.5394 70.1065 47.5394C69.7942 47.5394 69.7161 47.4606 69.7161 47.3819L70.1065 46.831C70.4187 46.3587 70.653 46.0439 70.653 45.7291C70.653 45.3355 70.4187 45.1781 70.0284 45.1781C69.4819 45.1781 69.0916 45.8078 68.7793 46.9097C68.3109 47.7755 67.6082 48.7987 66.5153 50.058C66.0468 50.5302 65.5784 51.0025 65.0319 51.4747C64.0951 52.2618 63.3144 52.734 62.7679 52.734C62.2214 52.734 62.0653 52.4979 62.0653 51.947C62.0653 51.6321 62.1434 51.396 62.2214 51.0812C62.2995 51.0812 62.2995 51.0812 62.3776 51.0812C63.0802 51.0812 63.939 50.7664 65.11 50.058C66.203 49.3496 66.8275 48.6413 66.8275 47.8542C66.8275 47.5394 66.7495 47.3032 66.5153 47.1458C66.2811 46.9884 66.0468 46.831 65.6565 46.831C64.7197 46.831 63.7048 47.4606 62.5337 48.6413C61.753 49.4283 61.2846 50.2154 61.0504 50.8451C60.66 51.2386 60.2697 51.5534 59.9574 51.7896C59.3329 52.2618 58.7864 52.4979 58.396 52.4979C57.6934 52.4979 57.1469 51.7896 56.8346 50.2941C57.1469 50.4515 57.5373 50.5302 58.1618 50.5302C58.7864 50.5302 59.5671 50.2941 60.2697 49.9006C61.2065 49.4283 61.753 48.72 61.9092 47.9329V47.8542C61.9092 47.5394 61.753 47.2245 61.4407 46.9097C61.1285 46.5162 60.7381 46.3587 60.2697 46.3587C59.7232 46.3587 59.0206 46.5162 58.0838 46.9097C58.318 46.5949 58.6302 46.2013 59.0987 45.6504C60.4258 43.9975 60.4258 43.9188 60.4258 43.8401C60.4258 43.604 60.2697 43.3679 59.6451 43.3679C59.4109 43.3679 59.3329 43.3679 59.2548 43.4466C58.6302 43.9188 57.5373 45.3355 55.8978 47.8542C55.5855 48.4051 55.2733 48.7987 55.039 49.2709C52.9312 51.8683 52.0724 52.4192 51.604 52.4192C51.5259 52.4192 51.4478 52.4192 51.3698 52.1044C51.3698 52.1044 51.3698 52.1044 51.3698 52.0257C51.3698 51.7108 51.604 51.0812 52.5408 49.7432C53.7119 47.9329 53.7119 47.8542 53.7119 47.7755C53.7119 47.6181 53.6338 47.5394 53.4777 47.3819C53.3215 47.2245 53.1654 47.1458 52.9312 47.1458H52.8531L52.775 46.9097C52.3066 46.5949 51.9163 46.4374 51.4478 46.4374C50.3549 46.4374 49.1058 47.1458 47.7786 48.4051C46.4514 49.7432 45.8268 50.8451 45.8268 51.8683C45.8268 52.3405 46.061 52.734 46.4514 53.0489C46.7637 53.285 47.154 53.4424 47.5444 53.4424C47.9347 53.4424 48.4812 53.1276 49.2619 52.4192L50.0426 51.6321V51.7108C50.0426 52.4192 50.3549 52.8915 50.9794 53.1276C51.604 53.3637 52.3847 53.0489 53.3215 52.1044C53.2434 52.2618 53.2434 52.3405 53.2434 52.4192C53.2434 52.8128 53.4776 53.1276 54.0241 53.3637L54.1803 53.4424L54.2583 53.285C54.7268 52.4192 55.039 51.7109 55.2733 51.396C55.9759 52.8128 56.8346 53.5211 57.8495 53.5211C58.5522 53.5211 59.3329 53.1276 60.3478 52.4192C60.4258 52.3405 60.582 52.2618 60.66 52.1831C60.7381 52.8128 61.1285 53.285 61.9872 53.5211C62.1434 53.5998 62.2995 53.5998 62.4556 53.5998C63.1583 53.5998 64.017 53.2063 65.0319 52.4979C65.9688 51.8683 66.7495 51.0812 67.374 50.2154C67.5302 50.058 67.6863 49.8219 67.8424 49.5857L69.0916 48.0116C69.2477 48.2477 69.4819 48.4051 69.7161 48.4838C69.4819 48.8774 69.2477 49.2709 69.0135 49.8219C68.7012 50.4515 68.5451 51.0812 68.5451 51.6321C68.5451 53.1276 69.4038 53.4424 70.1845 53.4424C70.8872 53.4424 71.7459 53.0489 72.7608 52.2618C72.917 52.1831 73.0731 52.0257 73.1512 51.947C73.1512 52.0257 73.1512 52.0257 73.1512 52.1044C73.1512 52.4192 73.2292 52.6553 73.4635 52.8915C74.0099 53.5211 75.0248 53.285 76.4301 52.1831L78.616 50.4515L78.1476 51.4747C77.6011 52.734 76.9766 53.836 76.4301 54.623C75.6494 55.7249 74.9468 56.2759 74.2442 56.2759C73.8538 56.2759 73.3854 55.8823 72.8389 55.174L72.5266 54.7804V55.3314C72.5266 55.8036 72.6828 56.2759 72.995 56.6694C73.3073 57.063 73.7757 57.2991 74.1661 57.2991C75.4152 57.2991 76.7424 56.2759 77.9915 54.2295C78.8503 52.734 79.3967 51.6321 79.7871 50.9238C79.7871 50.8451 79.9432 50.6089 80.6459 49.5857C81.5046 48.2477 81.5046 48.169 81.5046 48.0903C81.5046 47.6181 81.2704 47.3819 80.8801 47.3819ZM57.6153 48.0903C58.5522 47.5394 59.3329 47.2245 59.9574 47.2245C60.0355 47.2245 60.1136 47.2245 60.1916 47.3032C60.2697 47.3819 60.2697 47.3819 60.2697 47.4606C60.2697 48.0116 59.8013 48.4838 58.7864 48.9561C57.9276 49.4283 57.1469 49.6645 56.6785 49.6645C56.3662 49.6645 56.2101 49.6645 56.0539 49.5857C56.2882 49.1135 56.8346 48.5625 57.6153 48.0903ZM64.2513 49.5857C63.5486 50.058 62.9241 50.2941 62.5337 50.2941C62.9241 49.6645 63.4706 49.1135 64.1732 48.5626C64.8758 48.0116 65.2662 47.8542 65.4223 47.8542C65.6565 47.8542 65.7346 47.8542 65.7346 47.8542V47.9329C65.5004 48.5626 65.0319 49.1135 64.2513 49.5857ZM46.9979 52.1044C46.9979 51.396 47.6224 50.4515 48.8715 49.2709C50.1207 48.0903 51.0575 47.5394 51.7601 47.5394C51.9163 47.5394 51.9943 47.5394 51.9943 47.6181L50.1207 50.2941C48.6373 52.2618 47.7786 52.6553 47.3102 52.6553C47.154 52.5766 46.9979 52.5766 46.9979 52.1044Z" fill="white"/>
<path d="M28.3392 16.0563C28.3392 15.9776 28.2612 15.9776 28.1831 15.9776C28.105 15.9776 28.105 15.9776 28.027 15.9776L27.4024 16.3712L26.2314 14.4822L26.3875 14.4035C26.8559 14.0886 27.1682 13.7738 27.5585 13.459C27.8708 13.1442 28.105 12.7506 28.2612 12.3571C28.4173 11.9635 28.4954 11.4913 28.4173 11.0978C28.3392 10.6255 28.1831 10.1533 27.8708 9.68103C27.6366 9.28749 27.3243 8.97266 27.0121 8.73654C26.6998 8.50041 26.3094 8.343 25.9191 8.26429C25.5287 8.18558 25.1384 8.18558 24.748 8.26429C24.3577 8.343 23.9674 8.50041 23.577 8.73654C23.1086 9.05137 22.7182 9.28749 22.3279 9.60232C21.9375 9.91715 21.4691 10.1533 21.0788 10.4681C21.0007 10.4681 21.0007 10.5468 21.0007 10.6255C21.0007 10.7042 21.0007 10.7042 21.0007 10.7829L21.7814 11.8848C21.8595 11.9635 21.9375 11.9635 22.0156 11.9635L22.484 11.6487L26.1533 17.3944L25.6068 17.7092C25.5287 17.7092 25.5287 17.7879 25.5287 17.8666C25.5287 17.9453 25.5287 17.9453 25.5287 18.024L26.2314 19.0472C26.2314 19.1259 26.3094 19.1259 26.3875 19.1259H26.4656L28.8077 17.5518C28.8857 17.4731 28.8857 17.3944 28.8857 17.3157L28.3392 16.0563ZM23.8112 10.5468L24.5138 10.0746C24.67 9.99586 24.9042 9.91715 25.0603 9.83844C25.2165 9.83844 25.4507 9.83844 25.6068 9.83844C25.763 9.83844 25.9191 9.91715 26.0752 10.0746C26.2314 10.1533 26.3875 10.3107 26.4656 10.4681C26.6998 10.7829 26.7779 11.0191 26.7779 11.2552C26.7779 11.4913 26.7779 11.7274 26.6217 11.8848C26.5436 12.121 26.3875 12.2784 26.1533 12.4358C25.9191 12.5932 25.6849 12.8293 25.4507 12.9867L25.3726 13.0655L23.8112 10.5468Z" fill="#605656"/>
<path d="M39.0348 10.6255C38.9567 10.6255 38.9567 10.6255 38.8786 10.6255L38.0979 10.9403L36.2243 8.65783C36.4585 8.50041 36.6146 8.26429 36.6927 8.10688C36.8488 7.87075 36.9269 7.55592 37.005 7.24109C37.083 6.92626 37.083 6.61143 37.083 6.2966C37.083 5.98177 37.005 5.66694 36.8488 5.35211C36.6927 4.87987 36.4585 4.56504 36.1462 4.25021C35.8339 4.01408 35.5216 3.77796 35.2094 3.69925C34.819 3.62055 34.5067 3.54184 34.0383 3.54184C33.648 3.54184 33.2576 3.69925 32.8673 3.85667C32.3989 4.01408 31.9305 4.25021 31.462 4.40762C30.9936 4.64375 30.5252 4.80116 30.0568 5.03728C29.9787 5.03728 29.9787 5.11599 29.9787 5.11599C29.9787 5.1947 29.9787 5.1947 29.9787 5.27341L30.5252 6.45402C30.6033 6.53273 30.6813 6.61143 30.7594 6.53273L31.3059 6.2966L33.8822 12.7506L33.3357 12.9867C33.2576 12.9867 33.2576 13.0655 33.2576 13.0655C33.2576 13.1442 33.2576 13.1442 33.2576 13.2229L33.8041 14.3248C33.8041 14.4035 33.8822 14.4035 33.9603 14.4035H34.0383L36.4585 13.459C36.5366 13.459 36.6146 13.3016 36.5366 13.2229L36.1462 11.9635C36.1462 11.8848 36.0681 11.8848 36.0681 11.8848C35.9901 11.8848 35.9901 11.8848 35.912 11.8848L35.3655 12.121L34.3506 9.68103L34.8971 9.44491L36.6927 11.8061L36.4585 11.8848C36.3804 11.8848 36.3804 11.9635 36.3804 11.9635C36.3804 12.0423 36.3804 12.0423 36.3804 12.121L37.005 13.2229C37.083 13.3016 37.1611 13.3803 37.2392 13.3016L39.4251 12.1997C39.5032 12.121 39.5813 12.0423 39.5032 11.9635L39.1128 10.7042L39.0348 10.6255ZM33.8822 8.18558L33.7261 8.26429L32.7892 5.74565L33.648 5.43082C33.8041 5.35211 34.0383 5.27341 34.1945 5.27341C34.3506 5.27341 34.5067 5.27341 34.6629 5.35211C34.819 5.43082 34.9752 5.50953 35.0532 5.58824C35.2094 5.66694 35.2874 5.82436 35.3655 6.06048C35.5216 6.37531 35.5216 6.61143 35.5216 6.84756C35.4436 7.08368 35.3655 7.24109 35.2874 7.39851C35.1313 7.55592 34.9752 7.71334 34.741 7.79205C34.4287 7.94946 34.1164 8.10688 33.8822 8.18558Z" fill="#605656"/>
<path d="M46.9979 7.3198L46.061 7.55592C45.983 7.55592 45.983 7.63463 45.9049 7.63463C45.9049 7.71334 45.9049 7.71334 45.9049 7.79205L46.1391 9.13007L44.0312 9.60232L43.5628 7.00497L45.4365 6.53273C45.5146 6.53273 45.5926 6.37531 45.5926 6.2966L45.4365 5.35211C45.2803 5.1947 45.2803 5.1947 45.2803 5.11599C45.2023 5.11599 45.2023 5.11599 45.1242 5.11599L43.2505 5.50953L42.7821 2.91218L44.8119 2.36123L45.2023 3.54184C45.2023 3.62055 45.3584 3.69925 45.4365 3.69925L46.4514 3.46313C46.5295 3.46313 46.6075 3.30572 46.6075 3.22701L45.983 0.629659C45.983 0.550952 45.8268 0.472244 45.7488 0.472244L40.2839 1.65286C40.2058 1.65286 40.1278 1.81027 40.1278 1.88898L40.2839 3.1483C40.2839 3.22701 40.2839 3.22701 40.362 3.30572C40.44 3.30572 40.44 3.38442 40.5181 3.30572L41.1427 3.1483L42.4698 9.83844L41.8453 9.99586C41.7672 9.99586 41.7672 10.0746 41.6891 10.0746C41.6891 10.1533 41.6891 10.1533 41.6891 10.232L42.0014 11.4913C42.0014 11.57 42.0795 11.6487 42.1576 11.6487C42.1576 11.6487 42.1576 11.6487 42.2356 11.6487L47.7005 10.3894C47.7786 10.3894 47.7786 10.3107 47.8566 10.3107C47.8566 10.232 47.8566 10.232 47.8566 10.1533L47.2321 7.47722C47.2321 7.39851 47.154 7.3198 46.9979 7.3198Z" fill="#605656"/>
<path d="M59.5671 0H56.6004C56.5224 0 56.4443 0.0787075 56.4443 0.157415L54.8829 6.13919L54.0241 0.236123C54.0241 0.157415 53.9461 0.0787075 53.868 0.0787075L50.4329 0C50.3549 0 50.2768 0.0787075 50.1987 0.157415L50.1207 1.41674C50.1207 1.49544 50.1987 1.57415 50.2768 1.65286L51.2917 1.73157L51.1356 8.343H50.1987C50.1207 8.343 50.1207 8.343 50.0426 8.42171C50.0426 8.42171 49.9645 8.50041 49.9645 8.57912V9.83844C49.9645 9.91715 50.0426 9.99586 50.1207 10.0746L53.3215 10.232C53.3996 10.232 53.3996 10.232 53.4776 10.1533C53.5557 10.0746 53.5557 10.0746 53.5557 9.99586V8.73654C53.5557 8.65783 53.4776 8.57912 53.3996 8.57912H52.775L52.9312 4.32891L53.7899 9.60232C53.7899 9.68103 53.868 9.75974 53.9461 9.75974H55.2732C55.3513 9.75974 55.4294 9.68103 55.4294 9.60232L56.9908 3.85667L56.9127 8.50041H56.2881C56.2101 8.50041 56.132 8.57912 56.0539 8.65783L55.9759 9.99586C55.9759 10.0746 55.9759 10.0746 56.0539 10.1533C56.0539 10.1533 56.132 10.232 56.2101 10.232L59.0206 10.3107C59.0987 10.3107 59.0987 10.3107 59.1767 10.232C59.1767 10.232 59.2548 10.1533 59.2548 10.0746V8.73654C59.2548 8.65783 59.1767 8.57912 59.0987 8.57912H58.6302L58.8644 1.73157L59.5671 1.81027C59.6451 1.81027 59.6451 1.81027 59.7232 1.73157C59.8013 1.73157 59.8013 1.65286 59.8013 1.57415L59.8793 0.236123C59.8793 0.157415 59.8793 0.157415 59.8013 0.0787075C59.6451 0 59.5671 0 59.5671 0Z" fill="#605656"/>
<path d="M66.7495 1.49544L64.0951 0.944489C64.017 0.944489 63.8609 1.0232 63.8609 1.1019L63.5486 2.36122C63.5486 2.43993 63.5486 2.43993 63.5486 2.51864C63.5486 2.59735 63.6267 2.59735 63.7048 2.59735L64.3293 2.67605L63.0021 9.20878L62.3776 9.05136C62.2995 9.05136 62.2995 9.05136 62.2214 9.05136C62.1434 9.05136 62.1434 9.13007 62.1434 9.20878L61.9092 10.4681C61.9092 10.5468 61.9872 10.7042 62.0653 10.7042L64.7977 11.2552C64.8758 11.2552 64.9539 11.1765 64.9539 11.0978L65.2661 9.91715C65.2661 9.83844 65.2661 9.83844 65.2661 9.75973C65.2661 9.68103 65.1881 9.68103 65.11 9.68103L64.3293 9.52361L65.7346 2.99088L66.5153 3.1483C66.5933 3.1483 66.5933 3.1483 66.6714 3.06959C66.7495 3.06959 66.7495 2.99088 66.7495 2.91218L66.9056 1.65286C66.9056 1.57415 66.8275 1.49544 66.7495 1.49544Z" fill="#605656"/>
<path d="M77.2108 6.45402C77.2889 6.45402 77.445 6.45402 77.445 6.29661L77.8353 5.11599C77.8353 5.03729 77.8353 4.87987 77.7573 4.87987L75.181 3.93538C75.1029 3.93538 74.9468 3.93538 74.9468 4.01409L74.4003 5.27341C74.4003 5.35212 74.4003 5.35212 74.4003 5.43082C74.4003 5.50953 74.4784 5.50953 74.4784 5.50953L75.1029 5.74565L73.8538 8.97266C73.7757 9.13008 73.6977 9.3662 73.6196 9.60232C73.5415 9.83845 73.3854 10.0746 73.3073 10.3894C73.1512 10.6255 73.0731 10.8616 72.917 11.0978C72.7608 11.3339 72.6047 11.4913 72.4486 11.6487C72.2924 11.8061 72.1363 11.8848 71.9021 11.9635C71.7459 12.0423 71.5117 11.9635 71.2775 11.8848C71.1214 11.8061 70.9652 11.7274 70.8872 11.57C70.8091 11.4126 70.731 11.2552 70.731 11.0978C70.731 10.9404 70.731 10.7042 70.731 10.4681C70.731 10.232 70.8091 9.99586 70.8872 9.83845C70.9652 9.60232 71.0433 9.44491 71.0433 9.20879C71.1214 8.97266 71.1994 8.81525 71.2775 8.65783C71.5117 7.94946 71.824 7.3198 72.0582 6.69014C72.2924 6.06048 72.6047 5.50953 72.8389 4.87987L73.4635 5.03729C73.5415 5.03729 73.5415 5.03729 73.6196 5.03729C73.6977 5.03729 73.6977 4.95858 73.6977 4.95858L74.0099 3.77796C74.0099 3.69926 74.0099 3.54184 73.8538 3.54184L71.3556 2.59735C71.2775 2.59735 71.1214 2.59735 71.1214 2.67606L70.4187 3.93538C70.4187 4.01409 70.4187 4.01409 70.4187 4.09279C70.4187 4.1715 70.4968 4.1715 70.4968 4.1715L71.1214 4.40762C70.8872 4.95858 70.653 5.50953 70.4187 6.06048C70.1845 6.69014 69.8723 7.3198 69.638 7.94946C69.56 8.18559 69.4038 8.50042 69.3258 8.89396C69.2477 9.20879 69.1696 9.60232 69.0916 9.91715C69.0135 10.3107 69.0135 10.6255 69.0135 10.9404C69.0135 11.3339 69.0916 11.6487 69.1696 11.9635C69.2477 12.2784 69.4038 12.5932 69.638 12.8293C69.8723 13.0655 70.1845 13.3016 70.5749 13.459C70.9652 13.6164 71.2775 13.6951 71.5898 13.6951C71.6679 13.6951 71.7459 13.6951 71.824 13.6951C72.2143 13.6164 72.5266 13.5377 72.917 13.3803C73.2292 13.2229 73.5415 12.9867 73.7757 12.6719C74.0099 12.3571 74.2442 12.0423 74.4784 11.7274C74.7126 11.4126 74.8687 11.0191 75.0248 10.6255C75.181 10.232 75.3371 9.91715 75.4933 9.60232L76.6643 6.29661L77.2108 6.45402Z" fill="#605656"/>
<path d="M89.4677 12.2784L86.9695 10.6255C86.8914 10.5468 86.8133 10.5468 86.7353 10.6255L82.2072 14.797L84.6274 9.3662C84.7055 9.28749 84.6274 9.20879 84.5493 9.13008L81.8169 7.2411C81.7388 7.16239 81.5827 7.2411 81.5827 7.31981L80.8801 8.343C80.802 8.42171 80.802 8.57913 80.9581 8.57913L81.7388 9.20879L77.9915 14.6396L77.2889 14.1674C77.2108 14.1674 77.2108 14.0887 77.1327 14.1674C77.0547 14.1674 77.0547 14.2461 76.9766 14.2461L76.274 15.2693C76.1959 15.348 76.274 15.5054 76.352 15.5054L78.9283 17.3157C79.0064 17.3157 79.0064 17.3944 79.0845 17.3157C79.1625 17.3157 79.1625 17.237 79.2406 17.237L79.9432 16.1351C80.0213 16.0563 79.9432 15.8989 79.8652 15.8989L79.3967 15.5841L81.8169 12.0423L79.709 16.9221C79.709 17.0008 79.709 17.0795 79.7871 17.1582L80.9581 17.8666C81.0362 17.9453 81.1143 17.8666 81.1923 17.8666L85.33 14.0887L82.6757 17.9453L82.1292 17.5518C82.0511 17.4731 81.895 17.5518 81.895 17.6305L81.1143 18.7324C81.1143 18.8111 81.0362 18.8111 81.1143 18.8898C81.1143 18.9685 81.1923 18.9685 81.1923 19.0472L83.5344 20.6214H83.6125C83.6906 20.6214 83.6906 20.5427 83.7686 20.5427L84.4713 19.4408C84.5493 19.3621 84.4713 19.2046 84.3932 19.2046L84.0028 18.8898L87.9063 13.2229L88.4528 13.6164C88.5309 13.6164 88.5309 13.6951 88.6089 13.6164C88.687 13.6164 88.687 13.6164 88.7651 13.5377L89.5458 12.4358C89.5458 12.3571 89.6238 12.3571 89.5458 12.2784C89.5458 12.3571 89.4677 12.3571 89.4677 12.2784Z" fill="#605656"/>
<path d="M34.6629 76.976C34.2725 76.6612 33.8822 76.425 33.4138 76.3463C33.0234 76.2676 32.6331 76.2676 32.2427 76.3463C31.8524 76.425 31.462 76.5824 31.1498 76.8186C30.7594 77.0547 30.4471 77.2908 30.1348 77.6056C29.8226 77.9205 29.5103 78.1566 29.198 78.5501C28.8857 78.865 28.6515 79.1798 28.4173 79.4946C28.2612 79.7307 28.027 80.0456 27.8708 80.2817C27.7147 80.5965 27.4805 80.9114 27.3243 81.2262C27.1682 81.541 27.0121 81.9346 26.934 82.2494C26.8559 82.6429 26.7779 82.9578 26.7779 83.2726C26.7779 83.5874 26.8559 83.9809 27.0121 84.2958C27.1682 84.6106 27.4024 84.9254 27.7147 85.1616C27.7928 85.2403 27.9489 85.319 28.027 85.3977C28.105 85.4764 28.1831 85.4764 28.2612 85.5551C28.2612 85.8699 28.1831 86.1061 28.1831 86.4209C28.1831 86.7357 28.1831 87.1292 28.2612 87.4441C28.2612 87.5228 28.3392 87.6015 28.4173 87.6015L29.8226 87.3654C29.9006 87.3654 29.9006 87.2867 29.9787 87.2867C29.9787 87.208 29.9787 87.208 29.9787 87.1292C29.9006 86.9718 29.8226 86.7357 29.8226 86.4996C29.8226 86.3422 29.7445 86.106 29.7445 85.9486C29.9787 85.9486 30.2129 85.8699 30.3691 85.7912C30.6813 85.7125 30.9155 85.5551 31.1498 85.3977C31.384 85.2403 31.6182 85.0829 31.9304 84.8467C32.1647 84.6106 32.3989 84.4532 32.6331 84.2171C32.8673 83.9809 33.0234 83.7448 33.2576 83.5087C33.4138 83.2726 33.648 83.0365 33.8041 82.879C33.9603 82.6429 34.1945 82.3281 34.3506 82.092C34.5848 81.7771 34.741 81.4623 34.8971 81.1475C35.0532 80.8326 35.2094 80.4391 35.2874 80.1243C35.3655 79.7307 35.4436 79.4159 35.4436 79.0224C35.4436 78.6288 35.3655 78.314 35.2094 77.9992C35.2094 77.5269 34.9752 77.2121 34.6629 76.976ZM28.6515 83.5874C28.6515 83.5874 28.6515 83.5087 28.6515 83.5874C28.5735 83.3513 28.4954 83.2726 28.4954 83.1152C28.4954 82.9577 28.4954 82.879 28.4954 82.7216C28.4954 82.879 28.5735 82.9577 28.5735 83.1152C28.6515 83.2726 28.6515 83.43 28.6515 83.5874ZM30.1348 82.4855C30.0568 82.1707 29.9787 81.9346 29.8226 81.6197C29.6664 81.3836 29.5884 81.1475 29.3542 80.9901C29.3542 80.9114 29.4322 80.9114 29.4322 80.8326L29.6664 80.5965C29.8226 80.4391 29.9787 80.203 30.1348 79.9669C30.291 79.7307 30.5252 79.4946 30.7594 79.2585C30.9936 79.0224 31.2278 78.7863 31.462 78.6288C31.6962 78.3927 31.9304 78.2353 32.1647 78.1566C32.6331 77.9205 33.0234 77.9205 33.4918 78.2353C33.648 78.3927 33.726 78.4714 33.8041 78.7075C33.8822 78.865 33.8822 79.1011 33.8041 79.3372C33.726 79.5733 33.726 79.8094 33.5699 80.0456C33.4918 80.2817 33.3357 80.5178 33.1796 80.7539C33.0234 80.9901 32.8673 81.2262 32.7892 81.3836C32.6331 81.6197 32.555 81.7771 32.3989 81.8558C32.2427 82.0133 32.0866 82.2494 31.8524 82.4855C31.6182 82.7216 31.462 82.9577 31.2278 83.1939C30.9936 83.43 30.7594 83.5874 30.5252 83.7448C30.3691 83.8235 30.291 83.9022 30.1348 83.9809C30.2129 83.7448 30.2129 83.5874 30.2129 83.43C30.2129 83.1152 30.2129 82.8003 30.1348 82.4855Z" fill="#605656"/>
<path d="M45.0461 82.8003L42.5479 81.6984C42.4698 81.6197 42.3137 81.6984 42.3137 81.7771L41.6891 82.9577C41.6891 83.0365 41.6891 83.0365 41.6891 83.1152C41.6891 83.1939 41.7672 83.1939 41.7672 83.1939L42.3918 83.43L40.9865 86.5783C40.9084 86.7357 40.8304 86.9718 40.6742 87.208C40.5962 87.4441 40.44 87.6802 40.2839 87.9163C40.1278 88.1524 39.9716 88.3886 39.8155 88.6247C39.6593 88.8608 39.5032 89.0182 39.269 89.1756C39.1128 89.3331 38.8786 89.4118 38.7225 89.4118C38.5664 89.4905 38.3322 89.4118 38.0979 89.3331C37.9418 89.2543 37.7857 89.1756 37.7076 89.0182C37.6295 88.8608 37.5515 88.7034 37.5515 88.546C37.5515 88.3886 37.5515 88.1524 37.5515 87.9163C37.5515 87.6802 37.6295 87.4441 37.7076 87.2867C37.7857 87.0505 37.8637 86.8931 37.9418 86.657C38.0199 86.4209 38.0979 86.2635 38.176 86.106C38.4883 85.4764 38.8006 84.8467 39.1128 84.2171C39.4251 83.6661 39.6593 83.0365 39.9716 82.4855L40.5962 82.7216C40.6742 82.7216 40.6742 82.7216 40.7523 82.7216C40.8304 82.7216 40.8304 82.6429 40.8304 82.6429L41.2207 81.4623C41.2207 81.3836 41.2207 81.2262 41.1427 81.2262L38.6444 80.1243C38.5664 80.0456 38.4102 80.1243 38.4102 80.203L37.7857 81.3836C37.7857 81.4623 37.7857 81.4623 37.7857 81.541C37.7857 81.6197 37.8637 81.6197 37.8637 81.6197L38.4883 81.8558C38.2541 82.4068 37.9418 82.9577 37.7076 83.5087C37.3953 84.1384 37.083 84.768 36.8488 85.3977C36.6927 85.6338 36.6146 85.9486 36.4585 86.2635C36.3023 86.5783 36.2243 86.9718 36.1462 87.2867C36.0681 87.6802 35.9901 87.995 35.9901 88.3099C35.9901 88.7034 35.9901 89.0182 36.0681 89.3331C36.1462 89.6479 36.3023 89.9627 36.5366 90.1988C36.7708 90.435 37.083 90.6711 37.3953 90.8285C37.7857 90.9859 38.176 91.0646 38.4883 91.0646H38.5664C38.9567 91.0646 39.3471 90.9072 39.6593 90.7498C39.9716 90.5924 40.2839 90.3562 40.5962 90.0414C40.8304 89.7266 41.1427 89.4118 41.2988 89.0969C41.533 88.7821 41.6891 88.3886 41.9234 88.0737C42.0795 87.6802 42.2356 87.3654 42.3918 87.0505L43.797 83.8235L44.3435 84.0597C44.4216 84.0597 44.5777 84.0596 44.5777 83.9022L44.9681 82.7216C45.1242 82.9577 45.1242 82.8003 45.0461 82.8003Z" fill="#605656"/>
<path d="M51.7601 93.2684L51.0575 93.111L50.9013 85.7125L51.3698 85.7912C51.4478 85.7912 51.5259 85.7125 51.604 85.6338L51.8382 84.5319C51.8382 84.4532 51.8382 84.4532 51.8382 84.3745C51.8382 84.2958 51.7601 84.2958 51.682 84.2958L48.247 83.7448C48.1689 83.7448 48.1689 83.7448 48.0908 83.7448C48.0128 83.7448 48.0128 83.8235 48.0128 83.9022L47.8566 85.0829C47.8566 85.1616 47.9347 85.319 48.0128 85.319L48.4812 85.3977L45.8268 92.0091L45.1242 91.8517C45.0461 91.8517 45.0461 91.8517 44.9681 91.8517C44.89 91.8517 44.89 91.9304 44.89 92.0091L44.7338 93.3471C44.7338 93.4259 44.8119 93.5833 44.89 93.5833L47.6224 94.1342C47.7005 94.1342 47.8566 94.0555 47.8566 93.9768L48.1689 92.7962C48.1689 92.7175 48.1689 92.7175 48.1689 92.6388C48.1689 92.5601 48.0908 92.5601 48.0128 92.5601L47.4663 92.4027L47.9347 91.0646L49.418 91.3008V92.9536L48.7935 92.7962C48.7154 92.7962 48.7154 92.7962 48.6373 92.7962C48.5593 92.7962 48.5593 92.8749 48.5593 92.9536L48.4031 94.2916C48.4031 94.3704 48.4812 94.5278 48.5593 94.5278L51.2917 95.0787C51.2917 95.0787 51.2917 95.0787 51.3698 95.0787C51.4478 95.0787 51.5259 95 51.5259 94.9213L51.8382 93.662C51.9163 93.4259 51.9163 93.3472 51.7601 93.2684ZM49.5742 86.7357V89.6479L48.6373 89.4905L49.5742 86.7357Z" fill="#605656"/>
<path d="M61.1285 91.6156H59.9574C59.8793 91.6156 59.8793 91.6156 59.8013 91.6943C59.8013 91.6943 59.7232 91.773 59.7232 91.8517V93.1897H57.8495L57.6934 86.4996L58.4741 86.4209C58.5522 86.4209 58.6302 86.3422 58.6302 86.1848V84.9254C58.6302 84.8467 58.5522 84.768 58.396 84.768L55.4294 84.8467C55.3513 84.8467 55.2732 84.9254 55.2732 85.0829V86.3422C55.2732 86.4209 55.2732 86.4209 55.3513 86.4996C55.3513 86.4996 55.4294 86.5783 55.5075 86.5783H56.132L56.2881 93.2684H55.6636C55.5855 93.2684 55.5855 93.2684 55.5075 93.3471C55.5075 93.4259 55.4294 93.4259 55.4294 93.5046L55.5075 94.8426C55.5075 94.9213 55.5855 95 55.6636 95L61.0504 94.9213C61.1285 94.9213 61.2065 94.8426 61.2065 94.6852V91.8517C61.2846 91.773 61.2065 91.6156 61.1285 91.6156Z" fill="#605656"/>
<path d="M68.0767 91.8517C67.9986 91.8517 67.9986 91.773 67.9205 91.8517L67.2179 92.0091L65.8907 85.4764L66.5153 85.319C66.5933 85.319 66.5933 85.2403 66.5933 85.2403C66.5933 85.1616 66.5933 85.1616 66.5933 85.0829L66.203 83.9022C66.203 83.8235 66.0468 83.7448 65.9688 83.7448L63.3144 84.2958C63.2363 84.2958 63.1583 84.4532 63.1583 84.5319L63.3925 85.8699C63.3925 85.9486 63.4706 85.9486 63.4706 86.0273C63.5486 86.0273 63.5486 86.0273 63.6267 86.0273L64.2512 85.8699L65.6565 92.4027L65.0319 92.5601C64.9539 92.5601 64.9539 92.6388 64.8758 92.6388C64.8758 92.7175 64.8758 92.7175 64.8758 92.7962L65.1881 94.0555C65.1881 94.1342 65.2661 94.2129 65.3442 94.2129C65.3442 94.2129 65.3442 94.2129 65.4223 94.2129L68.1547 93.5046C68.2328 93.5046 68.3109 93.3471 68.3109 93.2684L68.0767 92.0091C68.1547 91.9304 68.0767 91.8517 68.0767 91.8517Z" fill="#605656"/>
<path d="M75.9617 89.0182C75.8836 89.0182 75.8836 89.0182 75.8055 89.0182L75.1029 89.3331L72.5266 82.9578L73.2292 82.6429L73.9319 84.1384C73.9319 84.2171 74.0099 84.2171 74.088 84.2171C74.1661 84.2171 74.1661 84.2171 74.2441 84.2171L75.181 83.6661C75.2591 83.5874 75.3371 83.5087 75.2591 83.43L73.9319 80.7539C73.8538 80.6752 73.7757 80.5965 73.6977 80.6752L68.6231 83.0365C68.5451 83.1152 68.467 83.1939 68.5451 83.2726L69.638 86.0274C69.638 86.1061 69.7161 86.1061 69.7161 86.1061C69.7942 86.1061 69.7942 86.1061 69.8723 86.1061L70.8872 85.6338C70.9652 85.6338 70.9652 85.5551 70.9652 85.5551C70.9652 85.4764 70.9652 85.4764 70.9652 85.3977L70.3407 83.981L71.1214 83.5874L73.7757 89.8053L73.2292 90.0414C73.1512 90.0414 73.1512 90.1201 73.1512 90.1201C73.1512 90.1988 73.1512 90.1988 73.1512 90.2776L73.6977 91.4582C73.6977 91.5369 73.7757 91.5369 73.8538 91.5369H73.9319L76.5082 90.3563C76.5862 90.2776 76.6643 90.1988 76.5862 90.1201L76.1959 88.9395C76.0398 89.0182 75.9617 89.0182 75.9617 89.0182Z" fill="#605656"/>
<path d="M85.0958 85.0042L84.4713 83.981C84.4713 83.9022 84.3932 83.9022 84.3151 83.9022C84.2371 83.9022 84.2371 83.9022 84.159 83.9022L83.5344 84.3745L82.3634 82.7216L81.1923 77.7631L81.7388 77.2908C81.8169 77.2121 81.8169 77.1334 81.7388 76.976L80.8801 75.9528C80.802 75.8741 80.7239 75.8741 80.6459 75.9528L78.3818 77.6056C78.3038 77.6843 78.3038 77.7631 78.3038 77.8418L79.0064 78.9437C79.0064 79.0224 79.0845 79.0224 79.1625 79.0224C79.2406 79.0224 79.2406 79.0224 79.3187 79.0224L79.7871 78.7075L80.6459 81.6984L78.2257 79.8095L78.616 79.4159C78.6941 79.4159 78.6941 79.3372 78.6941 79.2585C78.6941 79.1798 78.6941 79.1798 78.616 79.1011L77.8354 78.1566C77.7573 78.0779 77.6792 78.0779 77.6011 78.1566L75.3371 79.8095C75.2591 79.8882 75.2591 79.9669 75.2591 80.0456L75.9617 81.1475C75.9617 81.2262 76.0398 81.2262 76.1178 81.2262C76.1959 81.2262 76.1959 81.2262 76.274 81.2262L76.8205 80.7539L80.9581 83.5087L82.1292 85.1616L81.6608 85.5551C81.5827 85.5551 81.5827 85.6338 81.5827 85.7125C81.5827 85.7912 81.5827 85.7912 81.5827 85.8699L82.3634 86.8931C82.3634 86.9718 82.4415 86.9718 82.5195 86.9718C82.5976 86.9718 82.5976 86.9718 82.6757 86.9718L84.9397 85.2403C85.1739 85.1616 85.1739 85.0829 85.0958 85.0042Z" fill="#605656"/>
<path d="M12.335 59.3455C12.4911 59.3455 12.6473 59.3455 12.8034 59.4242V41.0066C13.1157 40.5344 13.506 39.6686 13.506 38.7241C13.506 37.2287 12.5692 36.048 12.5692 36.048C12.5692 36.048 11.6324 37.2287 11.6324 38.7241C11.6324 39.6686 12.0227 40.5344 12.335 41.0066V42.5808C12.1789 42.1085 11.9446 41.4789 11.4762 40.9279C10.4613 39.826 8.978 39.5899 8.978 39.5899C8.978 39.5899 9.05607 41.0853 10.071 42.1872C10.8517 43.053 11.9446 43.3679 12.335 43.4466V45.4142C12.1789 44.942 11.9446 44.2336 11.4762 43.7614C10.4613 42.6595 8.978 42.4234 8.978 42.4234C8.978 42.4234 9.05607 43.9188 10.071 45.0207C10.8517 45.8865 11.9446 46.2013 12.335 46.28V48.2477C12.1789 47.7755 11.9446 47.0671 11.4762 46.5949C10.4613 45.493 8.978 45.2568 8.978 45.2568C8.978 45.2568 9.05607 46.7523 10.071 47.8542C10.8517 48.72 11.9446 49.0348 12.335 49.1135V51.0812C12.1789 50.6089 11.9446 49.9006 11.4762 49.4283C10.4613 48.3264 8.978 48.0903 8.978 48.0903C8.978 48.0903 9.05607 49.5858 10.071 50.6877C10.8517 51.5534 11.9446 51.8683 12.335 51.947V53.9147C12.1789 53.4424 11.9446 52.7341 11.4762 52.2618C10.4613 51.1599 8.978 50.9238 8.978 50.9238C8.978 50.9238 9.05607 52.4192 10.071 53.5211C10.8517 54.3869 11.9446 54.7017 12.335 54.7804V56.6694C12.1789 56.1972 11.9446 55.4888 11.4762 55.0166C10.4613 53.9147 8.978 53.6785 8.978 53.6785C8.978 53.6785 9.05607 55.174 10.071 56.2759C10.8517 57.1417 11.9446 57.4565 12.335 57.5352V59.3455Z" fill="white"/>
<path d="M15.3016 56.3546C16.3165 55.2527 16.3946 53.7572 16.3946 53.7572C16.3946 53.7572 14.9113 53.9934 13.8964 55.0953C12.8815 56.1972 12.8034 57.6926 12.8034 57.6926C12.8034 57.6926 14.3648 57.3778 15.3016 56.3546Z" fill="white"/>
<path d="M15.3016 53.5211C16.3165 52.4192 16.3946 50.9238 16.3946 50.9238C16.3946 50.9238 14.9113 51.1599 13.8964 52.2618C12.8815 53.3637 12.8034 54.8592 12.8034 54.8592C12.8034 54.8592 14.3648 54.5443 15.3016 53.5211Z" fill="white"/>
<path d="M15.3016 50.6877C16.3165 49.5857 16.3946 48.0903 16.3946 48.0903C16.3946 48.0903 14.9113 48.3264 13.8964 49.4283C12.8815 50.5302 12.8034 52.0257 12.8034 52.0257C12.8034 52.0257 14.3648 51.7109 15.3016 50.6877Z" fill="white"/>
<path d="M15.3016 47.8542C16.3165 46.7523 16.3946 45.2568 16.3946 45.2568C16.3946 45.2568 14.9113 45.493 13.8964 46.5949C12.8815 47.6968 12.8034 49.1922 12.8034 49.1922C12.8034 49.1922 14.3648 48.9561 15.3016 47.8542Z" fill="white"/>
<path d="M15.3016 45.0207C16.3165 43.9188 16.3946 42.4234 16.3946 42.4234C16.3946 42.4234 14.9113 42.6595 13.8964 43.7614C12.8815 44.8633 12.8034 46.3587 12.8034 46.3587C12.8034 46.3587 14.3648 46.1226 15.3016 45.0207Z" fill="white"/>
<path d="M15.3016 42.1872C16.3165 41.0853 16.3946 39.5899 16.3946 39.5899C16.3946 39.5899 14.9113 39.826 13.8964 40.9279C12.8815 42.0298 12.8034 43.5253 12.8034 43.5253C12.8034 43.5253 14.3648 43.2891 15.3016 42.1872Z" fill="white"/>
<path d="M96.9624 59.3455C97.1185 59.3455 97.2747 59.3455 97.4308 59.4242V41.0066C97.7431 40.5344 98.1334 39.6686 98.1334 38.7241C98.1334 37.2287 97.1966 36.048 97.1966 36.048C97.1966 36.048 96.2598 37.2287 96.2598 38.7241C96.2598 39.6686 96.6501 40.5344 96.9624 41.0066V42.5808C96.8063 42.1085 96.572 41.4789 96.1036 40.9279C95.0887 39.826 93.6054 39.5899 93.6054 39.5899C93.6054 39.5899 93.6835 41.0853 94.6984 42.1872C95.4791 43.053 96.572 43.3679 96.9624 43.4466V45.4142C96.8063 44.942 96.572 44.2336 96.1036 43.7614C95.0887 42.6595 93.6054 42.4234 93.6054 42.4234C93.6054 42.4234 93.6835 43.9188 94.6984 45.0207C95.4791 45.8865 96.572 46.2013 96.9624 46.28V48.2477C96.8063 47.7755 96.572 47.0671 96.1036 46.5949C95.0887 45.493 93.6054 45.2568 93.6054 45.2568C93.6054 45.2568 93.6835 46.7523 94.6984 47.8542C95.4791 48.72 96.572 49.0348 96.9624 49.1135V51.0812C96.8063 50.6089 96.572 49.9006 96.1036 49.4283C95.0887 48.3264 93.6054 48.0903 93.6054 48.0903C93.6054 48.0903 93.6835 49.5858 94.6984 50.6877C95.4791 51.5534 96.572 51.8683 96.9624 51.947V53.9147C96.8063 53.4424 96.572 52.7341 96.1036 52.2618C95.0887 51.1599 93.6054 50.9238 93.6054 50.9238C93.6054 50.9238 93.6835 52.4192 94.6984 53.5211C95.4791 54.3869 96.572 54.7017 96.9624 54.7804V56.6694C96.8063 56.1972 96.572 55.4888 96.1036 55.0166C95.0887 53.9147 93.6054 53.6785 93.6054 53.6785C93.6054 53.6785 93.6835 55.174 94.6984 56.2759C95.4791 57.1417 96.572 57.4565 96.9624 57.5352V59.3455Z" fill="white"/>
<path d="M99.929 56.3546C100.944 55.2527 101.022 53.7572 101.022 53.7572C101.022 53.7572 99.5387 53.9934 98.5238 55.0953C97.5089 56.1972 97.4308 57.6926 97.4308 57.6926C97.4308 57.6926 98.9922 57.3778 99.929 56.3546Z" fill="white"/>
<path d="M99.929 53.5211C100.944 52.4192 101.022 50.9238 101.022 50.9238C101.022 50.9238 99.5387 51.1599 98.5238 52.2618C97.5089 53.3637 97.4308 54.8592 97.4308 54.8592C97.4308 54.8592 98.9922 54.5443 99.929 53.5211Z" fill="white"/>
<path d="M99.929 50.6877C100.944 49.5857 101.022 48.0903 101.022 48.0903C101.022 48.0903 99.5387 48.3264 98.5238 49.4283C97.5089 50.5302 97.4308 52.0257 97.4308 52.0257C97.4308 52.0257 98.9922 51.7109 99.929 50.6877Z" fill="white"/>
<path d="M99.929 47.8542C100.944 46.7523 101.022 45.2568 101.022 45.2568C101.022 45.2568 99.5387 45.493 98.5238 46.5949C97.5089 47.6968 97.4308 49.1922 97.4308 49.1922C97.4308 49.1922 98.9922 48.9561 99.929 47.8542Z" fill="white"/>
<path d="M99.929 45.0207C100.944 43.9188 101.022 42.4234 101.022 42.4234C101.022 42.4234 99.5387 42.6595 98.5238 43.7614C97.5089 44.8633 97.4308 46.3587 97.4308 46.3587C97.4308 46.3587 98.9922 46.1226 99.929 45.0207Z" fill="white"/>
<path d="M99.929 42.1872C100.944 41.0853 101.022 39.5899 101.022 39.5899C101.022 39.5899 99.5387 39.826 98.5238 40.9279C97.5089 42.0298 97.4308 43.5253 97.4308 43.5253C97.4308 43.5253 98.9922 43.2891 99.929 42.1872Z" fill="white"/>
</g>
<defs>
<clipPath id="clip0_39_41">
<rect width="110" height="95" fill="white"/>
</clipPath>
</defs>
</svg>
