<svg width="60" height="60" viewBox="0 0 60 60" fill="none" xmlns="http://www.w3.org/2000/svg">
<path fill-rule="evenodd" clip-rule="evenodd" d="M0 30C0 46.5685 13.4315 60 30 60C46.5685 60 60 46.5685 60 30C60 13.4315 46.5685 0 30 0C13.4315 0 0 13.4315 0 30ZM18.5716 47.9554V41.5519C14.5611 38.4999 12 33.8516 12 28.646C12 19.4526 19.9875 12 29.8408 12C39.6945 12 47.6814 19.4526 47.6814 28.646C47.6814 37.8387 39.6945 45.292 29.8408 45.292C28.0025 45.292 26.2283 45.0324 24.5592 44.5514L18.5716 47.9554Z" fill="#FF8126"/>
<path d="M27.9356 24.0867L18.3143 34.2737L27.0705 29.4694L31.6455 34.2737L41.2126 24.0867L32.5535 28.8068L27.9356 24.0867Z" fill="#FF8126"/>
</svg>
