<svg width="60" height="60" viewBox="0 0 60 60" fill="none" xmlns="http://www.w3.org/2000/svg">
<circle cx="30" cy="30" r="29.5" fill="white" stroke="#BFBFBF"/>
<path d="M41.1253 41.3547L41.1253 41.3547C40.9184 41.4788 36.207 44.2625 30 44.2625C24.2678 44.2625 19.1186 41.4884 18.8985 41.3683C18.8985 41.3683 18.8985 41.3683 18.8985 41.3683L18.9943 41.1928C18.9204 41.1524 18.8587 41.0929 18.8157 41.0205C18.7727 40.9481 18.75 40.8655 18.75 40.7812C18.75 36.9965 19.9106 33.5332 22.0178 31.0288C23.4229 29.359 25.1692 28.1957 27.0963 27.6144L41.1253 41.3547ZM41.1253 41.3547C41.2243 41.2953 41.3063 41.2112 41.3632 41.1107C41.4201 41.0102 41.45 40.8967 41.45 40.7812C41.45 36.9572 40.2775 33.446 38.1352 30.9C36.7517 29.2558 35.0399 28.0915 33.1472 27.4809M41.1253 41.3547L33.1472 27.4809M33.1472 27.4809C34.2327 26.8541 35.1099 25.9152 35.661 24.7809C36.2851 23.4962 36.4538 22.0374 36.1392 20.6442C35.8246 19.251 35.0454 18.0062 33.9298 17.1144C32.8141 16.2226 31.4283 15.7368 30 15.7368C28.5717 15.7368 27.1859 16.2226 26.0702 17.1144C24.9546 18.0062 24.1754 19.251 23.8608 20.6442C23.5462 22.0374 23.7149 23.4962 24.339 24.7809C24.8901 25.9152 25.7673 26.8541 26.8528 27.4809C24.9601 28.0915 23.2483 29.2559 21.8648 30.9L33.1472 27.4809ZM32.7535 26.1522C31.9386 26.6968 30.9804 26.9875 30.0002 26.9875C28.6861 26.986 27.4263 26.4633 26.4971 25.5341C25.5679 24.6049 25.0452 23.3451 25.0437 22.031C25.0438 21.0508 25.3345 20.0927 25.879 19.2777C26.4236 18.4627 27.1977 17.8274 28.1033 17.4523C29.009 17.0771 30.0055 16.979 30.9669 17.1702C31.9283 17.3615 32.8115 17.8335 33.5046 18.5267C34.1977 19.2198 34.6698 20.1029 34.861 21.0643C35.0523 22.0258 34.9541 23.0223 34.579 23.9279C34.2039 24.8336 33.5686 25.6076 32.7535 26.1522ZM22.8882 31.7611C24.7564 29.5413 27.2816 28.325 30 28.325C32.7184 28.325 35.2436 29.5413 37.1118 31.7611C38.97 33.9694 40.0316 37.0189 40.1081 40.3892C38.9526 41.0008 34.9241 42.925 30 42.925C25.4459 42.925 21.1382 40.9863 19.8923 40.3739C19.9718 37.0095 21.0328 33.966 22.8882 31.7611Z" fill="#1F1F1F" stroke="#1F1F1F" stroke-width="0.4"/>
</svg>
