<svg width="60" height="60" viewBox="0 0 60 60" fill="none" xmlns="http://www.w3.org/2000/svg">
<circle cx="30" cy="30" r="29.5" fill="white" stroke="#BFBFBF"/>
<g clip-path="url(#clip0_61_2)">
<path d="M28.5691 18C22.7415 18 18 22.7415 18 28.5691C18 34.3971 22.7415 39.1382 28.5691 39.1382C34.3971 39.1382 39.1382 34.3971 39.1382 28.5691C39.1382 22.7415 34.3971 18 28.5691 18ZM28.5691 37.187C23.8172 37.187 19.9512 33.321 19.9512 28.5691C19.9512 23.8173 23.8172 19.9512 28.5691 19.9512C33.321 19.9512 37.187 23.8172 37.187 28.5691C37.187 33.321 33.321 37.187 28.5691 37.187Z" fill="#1F1F1F"/>
<path d="M41.7142 40.3346L36.1207 34.7411C35.7396 34.36 35.1223 34.36 34.7412 34.7411C34.36 35.1219 34.36 35.7398 34.7412 36.1207L40.3347 41.7142C40.5252 41.9047 40.7747 42 41.0245 42C41.2739 42 41.5236 41.9047 41.7142 41.7142C42.0954 41.3334 42.0954 40.7154 41.7142 40.3346Z" fill="#1F1F1F"/>
</g>
<defs>
<clipPath id="clip0_61_2">
<rect width="24" height="24" fill="white" transform="translate(18 18)"/>
</clipPath>
</defs>
</svg>
