<svg width="60" height="60" viewBox="0 0 60 60" fill="none" xmlns="http://www.w3.org/2000/svg">
<path fill-rule="evenodd" clip-rule="evenodd" d="M0 30C0 46.5685 13.4315 60 30 60C46.5685 60 60 46.5685 60 30C60 13.4315 46.5685 0 30 0C13.4315 0 0 13.4315 0 30ZM24.5 43.75L25.0104 36.1029L25.01 36.1025L38.9211 23.5488C39.5316 23.0069 38.7879 22.7426 37.9774 23.2341L20.8091 34.0654L13.3934 31.7509C11.7919 31.2605 11.7804 30.16 13.7529 29.3689L42.6504 18.2261C43.9702 17.6269 45.2441 18.5431 44.7402 20.5631L39.819 43.7539C39.4754 45.4019 38.4796 45.796 37.1 45.0348L29.6034 39.4961L26 43C25.9886 43.011 25.9774 43.022 25.9661 43.033C25.5631 43.4254 25.2296 43.75 24.5 43.75Z" fill="#FF8126"/>
</svg>
