<svg width="60" height="60" viewBox="0 0 60 60" fill="none" xmlns="http://www.w3.org/2000/svg">
<path fill-rule="evenodd" clip-rule="evenodd" d="M30 0C13.4315 0 0 13.4315 0 30C0 46.5685 13.4315 60 30 60C46.5685 60 60 46.5685 60 30C60 13.4315 46.5685 0 30 0ZM29.1645 25.4225L29.1015 24.3844C28.9126 21.6939 30.5704 19.2364 33.1935 18.2831C34.1587 17.9441 35.7955 17.9017 36.8657 18.1984C37.2854 18.3255 38.0829 18.7491 38.6494 19.1305L39.6776 19.8296L40.8108 19.4695C41.4404 19.2787 42.2798 18.961 42.6574 18.7491C43.0141 18.5585 43.3289 18.4525 43.3289 18.5161C43.3289 18.8762 42.5525 20.105 41.902 20.7829C41.0206 21.7363 41.2725 21.821 43.0561 21.1854C44.1264 20.8252 44.1473 20.8253 43.9375 21.2278C43.8115 21.4396 43.161 22.1811 42.4685 22.859C41.2934 24.0243 41.2305 24.1514 41.2305 25.1259C41.2305 26.63 40.517 29.7654 39.8035 31.4814C38.4815 34.7015 35.6486 38.0275 32.8158 39.7011C28.8288 42.0527 23.5196 42.6459 19.05 41.2689C17.5601 40.8027 15 39.6164 15 39.4046C15 39.341 15.7764 39.2562 16.7208 39.2351C18.6933 39.1927 20.6658 38.6419 22.3445 37.6674L23.4777 36.9895L22.1766 36.5446C20.33 35.909 18.6723 34.4473 18.2526 33.0703C18.1266 32.6254 18.1686 32.6041 19.3438 32.6041L20.5609 32.583L19.5326 32.0957C18.3155 31.4814 17.2034 30.4433 16.6577 29.384C16.259 28.6214 15.7555 26.6935 15.9024 26.5452C15.9443 26.4818 16.385 26.6087 16.8886 26.7782C18.3365 27.3079 18.5254 27.1807 17.686 26.291C16.1121 24.681 15.6295 22.287 16.385 20.0202L16.7418 19.0034L18.1266 20.3804C20.9596 23.1556 24.2961 24.8081 28.1153 25.2954L29.1645 25.4225Z" fill="#FF8126"/>
</svg>
