<svg width="60" height="60" viewBox="0 0 60 60" fill="none" xmlns="http://www.w3.org/2000/svg">
<path fill-rule="evenodd" clip-rule="evenodd" d="M0 30C0 46.5685 13.4315 60 30 60C46.5685 60 60 46.5685 60 30C60 13.4315 46.5685 0 30 0C13.4315 0 0 13.4315 0 30ZM48.8276 28.8519C48.8237 38.6854 40.8244 46.6866 30.9889 46.6906H30.9815C27.9959 46.6896 25.0623 45.9405 22.4566 44.5194L13 47L15.5307 37.756C13.9696 35.0506 13.1482 31.9819 13.1495 28.8377C13.1535 19.0021 21.156 11 30.9886 11C35.7607 11.0021 40.2397 12.8599 43.6077 16.2318C46.9757 19.6035 48.8296 24.0854 48.8276 28.8519Z" fill="#FF8126"/>
<path fill-rule="evenodd" clip-rule="evenodd" d="M17.2831 42.7619L22.8949 41.2898L23.4363 41.6112C25.7128 42.9621 28.3223 43.6768 30.9829 43.6779H30.9889C39.1611 43.6779 45.8124 37.0264 45.8158 28.8508C45.8172 24.8889 44.2765 21.1638 41.4771 18.3612C38.6778 15.5586 34.955 14.0143 30.9947 14.0129C22.8161 14.0129 16.1648 20.6638 16.1615 28.8388C16.1604 31.6404 16.9442 34.3688 18.4285 36.7294L18.781 37.2904L17.2831 42.7619ZM39.3655 32.6926C39.6764 32.8428 39.8864 32.9442 39.976 33.0938C40.0874 33.2797 40.0874 34.1722 39.7161 35.2136C39.3445 36.2547 37.5639 37.2049 36.7074 37.3328C35.9395 37.4477 34.9678 37.4956 33.9 37.1562C33.2525 36.9508 32.4224 36.6766 31.3589 36.2173C27.1802 34.4129 24.3562 30.3629 23.8226 29.5974C23.7852 29.5438 23.759 29.5063 23.7445 29.4869L23.7409 29.4821C23.505 29.1673 21.9244 27.0584 21.9244 24.8759C21.9244 22.8228 22.933 21.7466 23.3973 21.2512C23.429 21.2173 23.4582 21.1861 23.4845 21.1574C23.893 20.7112 24.376 20.5997 24.6731 20.5997C24.9703 20.5997 25.2676 20.6024 25.5274 20.6154C25.5594 20.6171 25.5928 20.6168 25.6273 20.6167C25.887 20.6151 26.2107 20.6132 26.5302 21.3806C26.6531 21.6759 26.833 22.1137 27.0226 22.5753C27.4061 23.5092 27.83 24.5409 27.9045 24.6902C28.016 24.9133 28.0903 25.1736 27.9416 25.4712C27.9194 25.5158 27.8987 25.5579 27.879 25.5981C27.7675 25.8259 27.6854 25.9936 27.496 26.2147C27.4215 26.3017 27.3445 26.3954 27.2675 26.4891C27.1142 26.6758 26.9609 26.8626 26.8274 26.9956C26.6043 27.2178 26.3719 27.4591 26.6319 27.9053C26.8919 28.3516 27.7865 29.8111 29.1116 30.9931C30.536 32.2636 31.774 32.8006 32.4015 33.0728C32.524 33.1259 32.6233 33.1689 32.6961 33.2054C33.1416 33.4286 33.4017 33.3913 33.6617 33.0938C33.9217 32.7964 34.776 31.7923 35.0731 31.3461C35.3701 30.9001 35.6675 30.9743 36.076 31.1231C36.4846 31.2719 38.676 32.3501 39.1217 32.5732C39.2087 32.6168 39.2901 32.6561 39.3655 32.6926Z" fill="#FF8126"/>
</svg>
